<svg width="178" height="40" viewBox="0 0 178 40" fill="none" xmlns="http://www.w3.org/2000/svg">
<mask id="mask0" style="mask-type:alpha" maskUnits="userSpaceOnUse" x="0" y="0" width="33" height="40">
<path fill-rule="evenodd" clip-rule="evenodd" d="M16.4982 0L0.00760663 8.75306V19.3969C0.00325998 19.5039 0.000543331 19.6104 0 19.7169V19.8098C0.00162999 20.0891 0.0168432 20.3684 0.0461831 20.6466C3.52622 23.2882 7.35235 25.4404 11.4181 27.0416L11.7169 27.1665L12.0103 27.2752L12.1081 27.3132L12.4825 27.4436C12.5971 27.4817 12.7112 27.5251 12.8193 27.5523C13.4605 27.7642 13.9554 27.9163 14.2374 28.0033H14.2706C14.7541 27.0997 15.592 26.4379 16.5835 26.1782C18.5509 25.6615 20.5651 26.8384 21.0818 28.8063C21.5979 30.7742 20.4216 32.7878 18.4531 33.3045C16.4857 33.8212 14.4716 32.6444 13.9554 30.6764C9.3317 29.4594 5.07742 28.5466 1.41538 26.4167L2.3059 28.5249C3.9799 29.4485 9.27737 31.5566 11.5865 32.4477C11.5865 32.4477 6.06085 31.0894 3.1975 30.1059C6.19288 34.9921 10.9568 38.5357 16.4982 40C20.7454 38.8867 24.5585 36.5205 27.4404 33.2084L27.555 33.078L27.6691 32.9421C27.7338 32.8769 27.7881 32.8063 27.8538 32.7357L28.3157 32.1923C28.4184 32.0619 28.5113 31.9261 28.6085 31.7903C28.815 31.524 29.0274 31.2415 29.2339 30.9427C29.3643 30.7471 29.4942 30.5569 29.6142 30.3613C29.9761 29.8011 30.3102 29.2225 30.6134 28.6281C30.7552 28.3673 30.8965 28.0739 31.0101 27.824C31.1247 27.574 31.2442 27.3187 31.3475 27.0633C31.5105 26.6884 31.6626 26.3026 31.8039 25.9169C31.8435 25.8158 31.8783 25.7126 31.9071 25.6072C31.379 24.2641 30.5966 23.035 29.6034 21.9886C25.4252 17.4572 18.3564 13.8169 16.8025 13.0399H16.7482C16.1179 13.8555 15.1741 14.3689 14.1472 14.4553C12.1228 14.6265 10.3434 13.1236 10.1728 11.0992C10.0022 9.07525 11.5039 7.29584 13.5284 7.12469C15.5528 6.95409 17.3322 8.45694 17.5034 10.4808C23.3116 13.0671 29.3154 16.2999 32.9503 20.1032L32.9829 18.082C31.8202 16.8432 26.3543 12.8932 24.6265 11.7414C24.7188 11.774 30.9943 14.746 32.9829 16.1587V8.75306L16.4982 0Z" fill="white"/>
</mask>
<g mask="url(#mask0)">
<path fill-rule="evenodd" clip-rule="evenodd" d="M16.4982 0L0.00760663 8.75306V19.3969C0.00325998 19.5039 0.000543331 19.6104 0 19.7169V19.8098C0.00162999 20.0891 0.0168432 20.3684 0.0461831 20.6466C3.52622 23.2882 7.35235 25.4404 11.4181 27.0416L11.7169 27.1665L12.0103 27.2752L12.1081 27.3132L12.4825 27.4436C12.5971 27.4817 12.7112 27.5251 12.8193 27.5523C13.4605 27.7642 13.9554 27.9163 14.2374 28.0033H14.2706C14.7541 27.0997 15.592 26.4379 16.5835 26.1782C18.5509 25.6615 20.5651 26.8384 21.0818 28.8063C21.5979 30.7742 20.4216 32.7878 18.4531 33.3045C16.4857 33.8212 14.4716 32.6444 13.9554 30.6764C9.3317 29.4594 5.07742 28.5466 1.41538 26.4167L2.3059 28.5249C3.9799 29.4485 9.27737 31.5566 11.5865 32.4477C11.5865 32.4477 6.06085 31.0894 3.1975 30.1059C6.19288 34.9921 10.9568 38.5357 16.4982 40C20.7454 38.8867 24.5585 36.5205 27.4404 33.2084L27.555 33.078L27.6691 32.9421C27.7338 32.8769 27.7881 32.8063 27.8538 32.7357L28.3157 32.1923C28.4184 32.0619 28.5113 31.9261 28.6085 31.7903C28.815 31.524 29.0274 31.2415 29.2339 30.9427C29.3643 30.7471 29.4942 30.5569 29.6142 30.3613C29.9761 29.8011 30.3102 29.2225 30.6134 28.6281C30.7552 28.3673 30.8965 28.0739 31.0101 27.824C31.1247 27.574 31.2442 27.3187 31.3475 27.0633C31.5105 26.6884 31.6626 26.3026 31.8039 25.9169C31.8435 25.8158 31.8783 25.7126 31.9071 25.6072C31.379 24.2641 30.5966 23.035 29.6034 21.9886C25.4252 17.4572 18.3564 13.8169 16.8025 13.0399H16.7482C16.1179 13.8555 15.1741 14.3689 14.1472 14.4553C12.1228 14.6265 10.3434 13.1236 10.1728 11.0992C10.0022 9.07525 11.5039 7.29584 13.5284 7.12469C15.5528 6.95409 17.3322 8.45694 17.5034 10.4808C23.3116 13.0671 29.3154 16.2999 32.9503 20.1032L32.9829 18.082C31.8202 16.8432 26.3543 12.8932 24.6265 11.7414C24.7188 11.774 30.9943 14.746 32.9829 16.1587V8.75306L16.4982 0Z" fill="url(#paint0_linear)"/>
</g>
<path fill-rule="evenodd" clip-rule="evenodd" d="M19.7635 29.7311C19.7635 30.9731 18.7562 31.9805 17.5142 31.9805C16.2721 31.9805 15.2648 30.9731 15.2648 29.7311C15.2648 28.489 16.2721 27.4817 17.5142 27.4817C18.7562 27.4817 19.7635 28.489 19.7635 29.7311Z" fill="#35D384"/>
<path fill-rule="evenodd" clip-rule="evenodd" d="M16.0906 10.7851C16.0906 12.0304 15.0811 13.0399 13.8358 13.0399C12.5904 13.0399 11.5809 12.0304 11.5809 10.7851C11.5809 9.53978 12.5904 8.53027 13.8358 8.53027C15.0811 8.53027 16.0906 9.53978 16.0906 10.7851Z" fill="#35D384"/>
<mask id="mask1" style="mask-type:alpha" maskUnits="userSpaceOnUse" x="45" y="9" width="133" height="14">
<path fill-rule="evenodd" clip-rule="evenodd" d="M45.0001 9H177.09V22.1345H45.0001V9Z" fill="white"/>
</mask>
<g mask="url(#mask1)">
<path fill-rule="evenodd" clip-rule="evenodd" d="M166.991 18.0685H169.291C169.375 18.7434 169.649 19.2309 170.109 19.5306C170.566 19.8313 171.239 19.9819 172.125 19.9819C173.853 19.9819 174.72 19.4118 174.72 18.271C174.72 17.7667 174.547 17.3839 174.201 17.1199C173.859 16.8591 173.296 16.6831 172.511 16.5962L171.169 16.4321C168.59 16.113 167.307 14.9284 167.307 12.8806C167.307 11.6917 167.735 10.7561 168.59 10.0763C169.451 9.39658 170.623 9.05483 172.105 9.05483C173.539 9.05483 174.663 9.37877 175.472 10.0288C176.28 10.6799 176.736 11.6183 176.833 12.846H174.515C174.467 12.2305 174.242 11.7835 173.843 11.5006C173.444 11.2204 172.849 11.0795 172.049 11.0795C171.254 11.0795 170.651 11.2204 170.249 11.5006C169.843 11.7835 169.64 12.1814 169.64 12.6976C169.64 13.1619 169.818 13.5263 170.174 13.7828C170.529 14.0408 171.1 14.2195 171.884 14.3167L173.41 14.5192C174.612 14.6768 175.526 15.0542 176.152 15.6487C176.778 16.2447 177.09 17.0562 177.09 18.0869C177.09 19.3616 176.637 20.3393 175.73 21.0212C174.823 21.7015 173.576 22.0427 171.996 22.0427C170.449 22.0427 169.253 21.7015 168.407 21.0212C167.562 20.3393 167.089 19.3551 166.991 18.0685ZM157.499 18.3995V21.9321H155.09V9.23893H157.499V15.403L162.908 9.23893H165.998L161.271 14.3524L166.368 21.9321H163.44L159.653 16.0811L157.499 18.3995ZM152.92 21.9321H150.511L144.642 13.5263V21.9321H142.231V9.23893H144.642L150.511 17.6647V9.23893H152.92V21.9321ZM137.91 14.7022C137.91 12.311 136.966 11.1167 135.078 11.1167C134.108 11.1167 133.387 11.4093 132.917 11.9984C132.444 12.5885 132.205 13.488 132.205 14.7022V16.5233C132.205 17.689 132.444 18.5523 132.917 19.1165C133.387 19.6801 134.108 19.9646 135.078 19.9646C136.966 19.9646 137.91 18.8174 137.91 16.5233V14.7022ZM129.78 16.56V14.5732C129.78 12.7218 130.248 11.3284 131.188 10.3981C132.124 9.46569 133.42 8.99976 135.078 8.99976C136.708 8.99976 137.989 9.46569 138.923 10.3981C139.854 11.3284 140.319 12.7218 140.319 14.5732V16.56C140.319 18.3995 139.845 19.7892 138.894 20.7275C137.943 21.6643 136.647 22.1345 135.003 22.1345C133.36 22.1345 132.076 21.6686 131.157 20.7362C130.239 19.8043 129.78 18.4113 129.78 16.56ZM125.401 11.3359V21.9321H122.992V11.3359H119.184V9.23893H129.21V11.3359H125.401ZM108.405 18.0685H110.704C110.789 18.7434 111.063 19.2309 111.524 19.5306C111.983 19.8313 112.654 19.9819 113.538 19.9819C115.266 19.9819 116.132 19.4118 116.132 18.271C116.132 17.7667 115.959 17.3839 115.616 17.1199C115.272 16.8591 114.709 16.6831 113.922 16.5962L112.58 16.4321C110.005 16.113 108.716 14.9284 108.716 12.8806C108.716 11.6917 109.146 10.7561 110.005 10.0763C110.863 9.39658 112.036 9.05483 113.519 9.05483C114.953 9.05483 116.076 9.37877 116.884 10.0288C117.694 10.6799 118.147 11.6183 118.246 12.846H115.929C115.88 12.2305 115.655 11.7835 115.258 11.5006C114.859 11.2204 114.262 11.0795 113.465 11.0795C112.667 11.0795 112.065 11.2204 111.661 11.5006C111.257 11.7835 111.052 12.1814 111.052 12.6976C111.052 13.1619 111.231 13.5263 111.588 13.7828C111.943 14.0408 112.513 14.2195 113.298 14.3167L114.826 14.5192C116.026 14.6768 116.94 15.0542 117.566 15.6487C118.191 16.2447 118.504 17.0562 118.504 18.0869C118.504 19.3616 118.05 20.3393 117.143 21.0212C116.233 21.7015 114.99 22.0427 113.41 22.0427C111.863 22.0427 110.667 21.7015 109.821 21.0212C108.975 20.3393 108.505 19.3551 108.405 18.0685ZM98.1422 14.8863C99.4898 14.8863 100.165 14.2913 100.165 13.1019C100.165 12.5129 99.9882 12.0718 99.6297 11.7776C99.2744 11.4844 98.7783 11.3359 98.1422 11.3359H94.959V14.8863H98.1422ZM94.959 16.9461V21.9321H92.5505V9.23893H98.0661C99.4537 9.23893 100.548 9.56881 101.35 10.2329C102.154 10.8948 102.555 11.8515 102.555 13.1019C102.555 14.0106 102.338 14.7616 101.903 15.3555C101.466 15.9499 100.828 16.3813 99.9822 16.6534L103.126 21.9321H100.255L97.4776 16.9461H94.959ZM84.1609 14.4809H89.8812V16.5778H84.1609V19.8345H90.819V21.9321H81.7508V9.23893H90.819V11.3359H84.1609V14.4809ZM71.8549 9.23893L74.9286 18.3817L78.0179 9.23893H80.5949L75.8826 21.9321H73.9519L69.2796 9.23893H71.8549ZM63.9642 9.23893V19.8345H70.5138V21.9321H61.5536V9.23893H63.9642ZM56.8629 21.9321H59.2735V9.23893H56.8629V21.9321ZM45.0001 18.0685H47.2979C47.3854 18.7434 47.6575 19.2309 48.1164 19.5306C48.577 19.8313 49.247 19.9819 50.1314 19.9819C51.8596 19.9819 52.7256 19.4118 52.7256 18.271C52.7256 17.7667 52.5534 17.3839 52.2111 17.1199C51.8666 16.8591 51.3013 16.6831 50.519 16.5962L49.1757 16.4321C46.6015 16.113 45.3106 14.9284 45.3106 12.8806C45.3106 11.6917 45.743 10.7561 46.6015 10.0763C46.7294 9.9732 46.8644 9.87926 47.008 9.79233C47.8157 9.30156 48.8529 9.05483 50.113 9.05483C51.5481 9.05483 52.67 9.37877 53.4798 10.0288C54.2886 10.6799 54.7443 11.6183 54.8404 12.846H52.521C52.474 12.2305 52.2505 11.7835 51.8537 11.5006C51.4514 11.2204 50.8548 11.0795 50.059 11.0795C49.2594 11.0795 48.6623 11.2204 48.2563 11.5006C47.8503 11.7835 47.65 12.1814 47.65 12.6976C47.65 13.1619 47.8254 13.5263 48.1834 13.7828C48.5381 14.0408 49.1072 14.2195 49.8916 14.3167L51.419 14.5192C52.6209 14.6768 53.5338 15.0542 54.1607 15.6487C54.7832 16.2447 55.0985 17.0562 55.0985 18.0869C55.0985 19.3616 54.6439 20.3393 53.7352 21.0212C52.8287 21.7015 51.5859 22.0427 50.0029 22.0427C48.4577 22.0427 47.2623 21.7015 46.4163 21.0212C45.5686 20.3393 45.0968 19.3551 45.0001 18.0685Z" fill="#CFD0D1"/>
</g>
<path fill-rule="evenodd" clip-rule="evenodd" d="M47.9311 27.9053C47.9311 27.6478 47.863 27.4642 47.727 27.3525C47.5909 27.2413 47.376 27.1851 47.0813 27.1851H45.9248V28.6078H47.1147C47.3944 28.6078 47.6006 28.5521 47.7329 28.4404C47.8652 28.3292 47.9311 28.1505 47.9311 27.9053ZM48.4472 27.8994C48.4472 28.2768 48.3328 28.5667 48.1038 28.767C47.8755 28.9668 47.5418 29.0667 47.1039 29.0667H45.9248V30.6373H45.4092V26.7262H47.1039C47.538 26.7262 47.8706 26.8255 48.1011 27.0237C48.3317 27.2218 48.4472 27.5139 48.4472 27.8994Z" fill="#5DD39C"/>
<path fill-rule="evenodd" clip-rule="evenodd" d="M51.8711 28.5228C52.147 28.5228 52.35 28.4678 52.4807 28.3587C52.6108 28.2491 52.6761 28.079 52.6761 27.8485C52.6761 27.6217 52.607 27.4544 52.4693 27.3469C52.3317 27.2389 52.1206 27.1849 51.8376 27.1849H50.6693V28.5228H51.8711ZM50.6693 28.9704V30.6371H50.1537V26.7266H51.8598C52.2906 26.7266 52.6205 26.8227 52.8489 27.0154C53.0773 27.2076 53.1917 27.4857 53.1917 27.8485C53.1917 28.1319 53.1194 28.3652 52.9736 28.5487C52.8278 28.7318 52.6156 28.8554 52.336 28.9196L53.3051 30.6371H52.7155L51.8031 28.9704H50.6693Z" fill="#5DD39C"/>
<path fill-rule="evenodd" clip-rule="evenodd" d="M57.7157 28.9704V28.4208C57.7157 27.9786 57.6234 27.6542 57.4377 27.4463C57.253 27.2384 56.9734 27.1348 56.5992 27.1348C56.2213 27.1348 55.9405 27.2384 55.7575 27.4463C55.5745 27.6542 55.4827 27.9786 55.4827 28.4208V28.9704C55.4827 29.3975 55.5745 29.7133 55.7575 29.9174C55.9405 30.1215 56.2213 30.223 56.5992 30.223C56.9734 30.223 57.253 30.1215 57.4377 29.9174C57.6234 29.7133 57.7157 29.3975 57.7157 28.9704ZM54.9666 28.965V28.3927C54.9666 27.8221 55.1096 27.3923 55.3947 27.1029C55.6798 26.8141 56.0836 26.6694 56.6046 26.6694C57.1224 26.6694 57.5219 26.8141 57.8037 27.1029C58.085 27.3923 58.2259 27.8221 58.2259 28.3927V28.965C58.2259 29.5357 58.0834 29.9655 57.7978 30.2543C57.5127 30.5437 57.1094 30.6884 56.5879 30.6884C56.0701 30.6884 55.6706 30.5437 55.3888 30.2543C55.1075 29.9655 54.9666 29.5357 54.9666 28.965Z" fill="#5DD39C"/>
<path fill-rule="evenodd" clip-rule="evenodd" d="M61.5085 27.1851V30.6373H60.9983V27.1851H59.7344V26.7262H62.7724V27.1851H61.5085Z" fill="#5DD39C"/>
<path fill-rule="evenodd" clip-rule="evenodd" d="M64.8705 28.421H66.7694V28.8799H64.8705V30.1779H67.0863V30.6368H64.3544V26.7263H67.0863V27.1852H64.8705V28.421Z" fill="#5DD39C"/>
<path fill-rule="evenodd" clip-rule="evenodd" d="M68.7821 28.9651V28.3923C68.7821 27.8221 68.9257 27.3924 69.2129 27.103C69.5002 26.8141 69.9067 26.6694 70.4315 26.6694C70.9039 26.6694 71.2759 26.779 71.548 26.9982C71.8201 27.2174 71.9562 27.5236 71.9562 27.9166V27.9447H71.4406V27.922C71.4406 27.6693 71.3526 27.4739 71.1771 27.3378C71.0011 27.2018 70.7506 27.1343 70.4261 27.1343C70.0444 27.1343 69.7609 27.2385 69.5758 27.4464C69.3906 27.6537 69.2983 27.9787 69.2983 28.4209V28.9705C69.2983 29.3976 69.3917 29.7134 69.5785 29.9175C69.7658 30.1216 70.0498 30.2231 70.4315 30.2231C70.7565 30.2231 71.006 30.155 71.1798 30.019C71.3537 29.8829 71.4406 29.687 71.4406 29.4294V29.4067H71.9508V29.4354C71.9508 29.8284 71.8137 30.1356 71.5394 30.3564C71.2657 30.5773 70.8926 30.6879 70.4202 30.6879C69.8986 30.6879 69.4953 30.5438 69.2102 30.2544C68.9252 29.9655 68.7821 29.5358 68.7821 28.9651Z" fill="#5DD39C"/>
<path fill-rule="evenodd" clip-rule="evenodd" d="M75.2388 27.1851V30.6373H74.7286V27.1851H73.4647V26.7262H76.5028V27.1851H75.2388Z" fill="#5DD39C"/>
<mask id="mask2" style="mask-type:alpha" maskUnits="userSpaceOnUse" x="80" y="26" width="4" height="5">
<path fill-rule="evenodd" clip-rule="evenodd" d="M80.3353 26.6635H83.504V30.6992H80.3353V26.6635Z" fill="white"/>
</mask>
<g mask="url(#mask2)">
<path fill-rule="evenodd" clip-rule="evenodd" d="M81.163 27.5252C81.163 27.6197 81.1873 27.7147 81.237 27.8086C81.2861 27.9031 81.3768 28.0332 81.5091 28.1995L81.5372 28.2336L81.5712 28.2114C81.7639 28.0867 81.8989 27.9739 81.9761 27.874C82.0538 27.7736 82.0927 27.6596 82.0927 27.5311C82.0927 27.3913 82.0501 27.279 81.9648 27.1937C81.88 27.1089 81.7677 27.0657 81.6279 27.0657C81.488 27.0657 81.3757 27.1089 81.2904 27.1937C81.2057 27.279 81.163 27.3891 81.163 27.5252ZM82.2909 29.8603L81.4065 28.7951C81.2067 28.9273 81.0572 29.0607 80.9589 29.1946C80.8607 29.329 80.8115 29.4732 80.8115 29.6287C80.8115 29.8133 80.872 29.9656 80.9929 30.0843C81.1139 30.2037 81.2839 30.263 81.5031 30.263C81.6468 30.263 81.7801 30.2317 81.9027 30.1691C82.0258 30.107 82.1548 30.0044 82.2909 29.8603ZM83.504 30.6372H83.3113C83.1714 30.6372 83.0559 30.6145 82.9652 30.5692C82.8745 30.5238 82.7762 30.4401 82.6704 30.3197L82.563 30.1896C82.3929 30.371 82.2201 30.5011 82.0441 30.5805C81.8687 30.6599 81.677 30.6993 81.4691 30.6993C81.231 30.6993 81.0269 30.6529 80.8569 30.5605C80.6868 30.4677 80.5572 30.3424 80.4687 30.1837C80.3796 30.025 80.3353 29.8457 80.3353 29.6454C80.3353 29.4186 80.4007 29.2097 80.5313 29.0191C80.6614 28.828 80.8644 28.6439 81.1403 28.4662C80.9778 28.2659 80.8617 28.0953 80.7921 27.9533C80.7219 27.8113 80.6868 27.671 80.6868 27.5311C80.6868 27.3648 80.7262 27.2164 80.8061 27.0863C80.8849 26.9556 80.9967 26.853 81.1403 26.7769C81.2839 26.7018 81.4464 26.6635 81.6279 26.6635C81.9037 26.6635 82.1283 26.745 82.3022 26.9075C82.476 27.0701 82.563 27.2795 82.563 27.5365C82.563 27.7331 82.5063 27.9069 82.3929 28.0581C82.2795 28.2093 82.0943 28.3696 81.8373 28.5402L81.8093 28.557L82.597 29.5034L83.1072 28.9084L83.4301 29.1919L82.8745 29.8376L83.0105 30.0023C83.0753 30.0741 83.1342 30.1238 83.1893 30.1524C83.2438 30.181 83.3113 30.1945 83.3906 30.1945H83.504V30.6372Z" fill="#5DD39C"/>
</g>
<path fill-rule="evenodd" clip-rule="evenodd" d="M89.9921 29.8773C90.1751 29.6775 90.2669 29.3676 90.2669 28.9481V28.4492C90.2669 28.0184 90.1751 27.7004 89.9921 27.4941C89.8091 27.2884 89.5283 27.1853 89.1504 27.1853H88.2207V30.178H89.1504C89.5283 30.178 89.8091 30.0776 89.9921 29.8773ZM89.1504 26.7264C89.6719 26.7264 90.0742 26.8678 90.3576 27.1513C90.6411 27.4347 90.7825 27.858 90.7825 28.4211V28.9367C90.7825 29.4999 90.64 29.9237 90.3549 30.2088C90.0699 30.4944 89.6644 30.6369 89.1391 30.6369H87.7051V26.7264H89.1504Z" fill="#5DD39C"/>
<mask id="mask3" style="mask-type:alpha" maskUnits="userSpaceOnUse" x="45" y="9" width="133" height="22">
<path fill-rule="evenodd" clip-rule="evenodd" d="M45 30.6992H177.09V9H45V30.6992Z" fill="white"/>
</mask>
<g mask="url(#mask3)">
<path fill-rule="evenodd" clip-rule="evenodd" d="M92.6994 30.6371H93.215V26.7266H92.6994V30.6371Z" fill="#5DD39C"/>
<path fill-rule="evenodd" clip-rule="evenodd" d="M95.3697 26.7264L96.5202 29.9399L97.6535 26.7264H98.1923L96.7357 30.637H96.3043L94.8314 26.7264H95.3697Z" fill="#5DD39C"/>
<path fill-rule="evenodd" clip-rule="evenodd" d="M100.284 28.421H102.184V28.8799H100.284V30.1779H102.5V30.6368H99.7686V26.7263H102.5V27.1852H100.284V28.421Z" fill="#5DD39C"/>
<path fill-rule="evenodd" clip-rule="evenodd" d="M106.004 28.5228C106.28 28.5228 106.484 28.4678 106.614 28.3587C106.744 28.2491 106.809 28.079 106.809 27.8485C106.809 27.6217 106.74 27.4544 106.602 27.3469C106.465 27.2389 106.254 27.1849 105.971 27.1849H104.802V28.5228H106.004ZM104.802 28.9704V30.6371H104.287V26.7266H105.993C106.424 26.7266 106.754 26.8227 106.983 27.0154C107.21 27.2076 107.325 27.4857 107.325 27.8485C107.325 28.1319 107.253 28.3652 107.107 28.5487C106.961 28.7318 106.749 28.8554 106.469 28.9196L107.438 30.6371H106.849L105.936 28.9704H104.802Z" fill="#5DD39C"/>
<path fill-rule="evenodd" clip-rule="evenodd" d="M108.958 29.5092H109.457C109.48 29.7625 109.577 29.946 109.749 30.0589C109.921 30.1728 110.169 30.2289 110.494 30.2289C111.167 30.2289 111.503 30.0043 111.503 29.5546C111.503 29.3581 111.439 29.2064 111.31 29.1011C111.182 28.9953 110.984 28.9272 110.715 28.897L110.188 28.8344C109.429 28.7399 109.049 28.3906 109.049 27.7864C109.049 27.4344 109.177 27.1612 109.434 26.9668C109.691 26.7725 110.043 26.6753 110.489 26.6753C110.923 26.6753 111.264 26.7687 111.511 26.956C111.759 27.1428 111.902 27.4198 111.939 27.7864H111.441C111.422 27.5597 111.335 27.3901 111.18 27.2789C111.025 27.1671 110.794 27.1115 110.489 27.1115C110.179 27.1115 109.944 27.1661 109.786 27.2757C109.627 27.3853 109.548 27.544 109.548 27.7519C109.548 27.9333 109.609 28.0753 109.732 28.1773C109.855 28.2793 110.046 28.3474 110.307 28.3808L110.857 28.4435C111.627 28.5455 112.013 28.9046 112.013 29.5206C112.013 29.8866 111.877 30.1706 111.605 30.3709C111.333 30.5712 110.955 30.6711 110.472 30.6711C110.003 30.6711 109.64 30.5729 109.383 30.3758C109.126 30.1798 108.984 29.891 108.958 29.5092Z" fill="#5DD39C"/>
<path fill-rule="evenodd" clip-rule="evenodd" d="M113.828 30.6371H114.344V26.7266H113.828V30.6371Z" fill="#5DD39C"/>
<path fill-rule="evenodd" clip-rule="evenodd" d="M116.849 28.4379H118.753V28.8973H116.849V30.6369H116.333V26.7264H119.065V27.1853H116.849V28.4379Z" fill="#5DD39C"/>
<path fill-rule="evenodd" clip-rule="evenodd" d="M122.303 30.6371H121.793V29.0557L120.438 26.7266H121.016L122.053 28.6249L123.079 26.7266H123.657L122.303 29.0611V30.6371Z" fill="#5DD39C"/>
<path fill-rule="evenodd" clip-rule="evenodd" d="M129.088 30.6371H128.579V29.0557L127.224 26.7266H127.802L128.839 28.6249L129.865 26.7266H130.443L129.088 29.0611V30.6371Z" fill="#5DD39C"/>
<path fill-rule="evenodd" clip-rule="evenodd" d="M134.672 28.9704V28.4208C134.672 27.9786 134.58 27.6542 134.394 27.4463C134.21 27.2384 133.929 27.1348 133.556 27.1348C133.177 27.1348 132.897 27.2384 132.714 27.4463C132.531 27.6542 132.439 27.9786 132.439 28.4208V28.9704C132.439 29.3975 132.531 29.7133 132.714 29.9174C132.897 30.1215 133.177 30.223 133.556 30.223C133.929 30.223 134.21 30.1215 134.394 29.9174C134.58 29.7133 134.672 29.3975 134.672 28.9704ZM131.923 28.965V28.3927C131.923 27.8221 132.066 27.3923 132.351 27.1029C132.636 26.8141 133.04 26.6694 133.561 26.6694C134.079 26.6694 134.479 26.8141 134.76 27.1029C135.042 27.3923 135.182 27.8221 135.182 28.3927V28.965C135.182 29.5357 135.04 29.9655 134.754 30.2543C134.469 30.5437 134.066 30.6884 133.544 30.6884C133.026 30.6884 132.627 30.5437 132.345 30.2543C132.064 29.9655 131.923 29.5357 131.923 28.965Z" fill="#5DD39C"/>
<path fill-rule="evenodd" clip-rule="evenodd" d="M137.059 29.2372V26.7266H137.575V29.2032C137.575 29.8791 137.921 30.2176 138.612 30.2176C139.304 30.2176 139.65 29.8791 139.65 29.2032V26.7266H140.165V29.2372C140.165 29.6907 140.028 30.0427 139.755 30.2943C139.48 30.5454 139.1 30.6712 138.612 30.6712C138.125 30.6712 137.744 30.5454 137.47 30.2943C137.196 30.0427 137.059 29.6907 137.059 29.2372Z" fill="#5DD39C"/>
<path fill-rule="evenodd" clip-rule="evenodd" d="M143.833 28.5228C144.109 28.5228 144.312 28.4678 144.442 28.3587C144.573 28.2491 144.638 28.079 144.638 27.8485C144.638 27.6217 144.569 27.4544 144.431 27.3469C144.293 27.2389 144.082 27.1849 143.799 27.1849H142.631V28.5228H143.833ZM142.631 28.9704V30.6371H142.115V26.7266H143.822C144.252 26.7266 144.582 26.8227 144.811 27.0154C145.039 27.2076 145.154 27.4857 145.154 27.8485C145.154 28.1319 145.081 28.3652 144.935 28.5487C144.79 28.7318 144.577 28.8554 144.298 28.9196L145.267 30.6371H144.677L143.765 28.9704H142.631Z" fill="#5DD39C"/>
<path fill-rule="evenodd" clip-rule="evenodd" d="M150.857 27.3612L150.075 29.3162H151.639L150.857 27.3612ZM149.899 29.753L149.548 30.6368H149.009L150.642 26.7263H151.078L152.716 30.6368H152.172L151.815 29.753H149.899Z" fill="#5DD39C"/>
<path fill-rule="evenodd" clip-rule="evenodd" d="M154.06 29.5092H154.559C154.581 29.7625 154.679 29.946 154.851 30.0589C155.023 30.1728 155.271 30.2289 155.596 30.2289C156.269 30.2289 156.605 30.0043 156.605 29.5546C156.605 29.3581 156.541 29.2064 156.412 29.1011C156.284 28.9953 156.086 28.9272 155.817 28.897L155.29 28.8344C154.531 28.7399 154.151 28.3906 154.151 27.7864C154.151 27.4344 154.279 27.1612 154.536 26.9668C154.793 26.7725 155.145 26.6753 155.591 26.6753C156.025 26.6753 156.366 26.7687 156.613 26.956C156.861 27.1428 157.003 27.4198 157.041 27.7864H156.543C156.524 27.5597 156.437 27.3901 156.282 27.2789C156.127 27.1671 155.896 27.1115 155.591 27.1115C155.281 27.1115 155.046 27.1661 154.888 27.2757C154.729 27.3853 154.65 27.544 154.65 27.7519C154.65 27.9333 154.711 28.0753 154.834 28.1773C154.957 28.2793 155.148 28.3474 155.409 28.3808L155.959 28.4435C156.729 28.5455 157.115 28.9046 157.115 29.5206C157.115 29.8866 156.979 30.1706 156.707 30.3709C156.435 30.5712 156.057 30.6711 155.574 30.6711C155.105 30.6711 154.742 30.5729 154.485 30.3758C154.228 30.1798 154.086 29.891 154.06 29.5092Z" fill="#5DD39C"/>
<path fill-rule="evenodd" clip-rule="evenodd" d="M158.658 29.5092H159.156C159.179 29.7625 159.276 29.946 159.449 30.0589C159.62 30.1728 159.869 30.2289 160.194 30.2289C160.866 30.2289 161.203 30.0043 161.203 29.5546C161.203 29.3581 161.138 29.2064 161.009 29.1011C160.881 28.9953 160.683 28.9272 160.415 28.897L159.887 28.8344C159.128 28.7399 158.748 28.3906 158.748 27.7864C158.748 27.4344 158.877 27.1612 159.134 26.9668C159.391 26.7725 159.742 26.6753 160.188 26.6753C160.623 26.6753 160.964 26.7687 161.211 26.956C161.459 27.1428 161.601 27.4198 161.639 27.7864H161.141C161.121 27.5597 161.034 27.3901 160.879 27.2789C160.724 27.1671 160.494 27.1115 160.188 27.1115C159.878 27.1115 159.644 27.1661 159.485 27.2757C159.327 27.3853 159.247 27.544 159.247 27.7519C159.247 27.9333 159.309 28.0753 159.432 28.1773C159.554 28.2793 159.746 28.3474 160.007 28.3808L160.556 28.4435C161.327 28.5455 161.713 28.9046 161.713 29.5206C161.713 29.8866 161.577 30.1706 161.305 30.3709C161.033 30.5712 160.655 30.6711 160.171 30.6711C159.703 30.6711 159.34 30.5729 159.083 30.3758C158.826 30.1798 158.684 29.891 158.658 29.5092Z" fill="#5DD39C"/>
<path fill-rule="evenodd" clip-rule="evenodd" d="M164.003 28.421H165.903V28.8799H164.003V30.1779H166.22V30.6368H163.488V26.7263H166.22V27.1852H164.003V28.421Z" fill="#5DD39C"/>
<path fill-rule="evenodd" clip-rule="evenodd" d="M169.411 27.1851V30.6373H168.902V27.1851H167.637V26.7262H170.675V27.1851H169.411Z" fill="#5DD39C"/>
<path fill-rule="evenodd" clip-rule="evenodd" d="M172.025 29.5092H172.524C172.546 29.7625 172.644 29.946 172.816 30.0589C172.988 30.1728 173.236 30.2289 173.561 30.2289C174.234 30.2289 174.57 30.0043 174.57 29.5546C174.57 29.3581 174.506 29.2064 174.377 29.1011C174.249 28.9953 174.051 28.9272 173.782 28.897L173.255 28.8344C172.495 28.7399 172.116 28.3906 172.116 27.7864C172.116 27.4344 172.244 27.1612 172.501 26.9668C172.758 26.7725 173.11 26.6753 173.556 26.6753C173.99 26.6753 174.331 26.7687 174.578 26.956C174.826 27.1428 174.968 27.4198 175.006 27.7864H174.508C174.488 27.5597 174.402 27.3901 174.247 27.2789C174.092 27.1671 173.861 27.1115 173.556 27.1115C173.246 27.1115 173.011 27.1661 172.853 27.2757C172.694 27.3853 172.614 27.544 172.614 27.7519C172.614 27.9333 172.676 28.0753 172.799 28.1773C172.922 28.2793 173.113 28.3474 173.374 28.3808L173.924 28.4435C174.695 28.5455 175.08 28.9046 175.08 29.5206C175.08 29.8866 174.944 30.1706 174.672 30.3709C174.399 30.5712 174.022 30.6711 173.538 30.6711C173.07 30.6711 172.707 30.5729 172.45 30.3758C172.193 30.1798 172.051 29.891 172.025 29.5092Z" fill="#5DD39C"/>
</g>
<defs>
<linearGradient id="paint0_linear" x1="0" y1="39.9999" x2="32.9827" y2="39.9999" gradientUnits="userSpaceOnUse">
<stop stop-color="#D1D6F6"/>
<stop offset="1" stop-color="#878787"/>
</linearGradient>
</defs>
</svg>
