<?xml version="1.0" encoding="UTF-8"?>
<svg width="249px" height="56px" viewBox="0 0 249 56" version="1.1" xmlns="http://www.w3.org/2000/svg" xmlns:xlink="http://www.w3.org/1999/xlink">
    <title>Group 48</title>
    <defs>
        <polygon id="path-1" points="0 0 186.08794 0 186.08794 18.5040132 0 18.5040132"></polygon>
        <polygon id="path-3" points="0 0 46.1623682 0 46.1623682 55.9997822 0 55.9997822"></polygon>
        <polygon id="path-5" points="0 56 248.234644 56 248.234644 0 0 0"></polygon>
    </defs>
    <g id="Symbols" stroke="none" stroke-width="1" fill="none" fill-rule="evenodd">
        <g id="footer" transform="translate(-149.000000, -421.000000)">
            <g id="Group-48" transform="translate(149.000000, 421.000000)">
                <g id="Group-3" transform="translate(62.146705, 14.213229)">
                    <mask id="mask-2" fill="white">
                        <use xlink:href="#path-1"></use>
                    </mask>
                    <g id="Clip-2"></g>
                    <path d="M171.860116,12.7755605 L175.099389,12.7755605 C175.221379,13.7275191 175.604051,14.4137135 176.253939,14.8348699 C176.897291,15.260383 177.844893,15.4716873 179.091661,15.4716873 C181.526381,15.4716873 182.746282,14.6685857 182.746282,13.0623825 C182.746282,12.3514996 182.503754,11.8127099 182.017246,11.4409305 C181.536546,11.0720556 180.740706,10.8237186 179.63626,10.7024546 L177.743961,10.4708186 C174.113302,10.0198908 172.30233,8.35196639 172.30233,5.46777142 C172.30233,3.79113341 172.906472,2.47465671 174.113302,1.51616291 C175.323038,0.557669117 176.974261,0.0769699563 179.063342,0.0769699563 C181.084166,0.0769699563 182.667133,0.535159036 183.80716,1.4493588 C184.944282,2.36718922 185.586909,3.69020111 185.726326,5.4191206 L182.460186,5.4191206 C182.390477,4.55284553 182.073884,3.92328938 181.512584,3.52464309 C180.950558,3.12890134 180.109698,2.928489 178.986372,2.928489 C177.864499,2.928489 177.017103,3.12890134 176.447816,3.52464309 C175.877802,3.92328938 175.591707,4.48168463 175.591707,5.20926855 C175.591707,5.86423931 175.842222,6.37616213 176.346157,6.73704957 C176.843558,7.10301993 177.649564,7.35353535 178.752558,7.49004811 L180.904086,7.77469172 C182.595973,7.9990664 183.882678,8.53059478 184.765654,9.36782459 C185.646452,10.2057805 186.08794,11.350164 186.08794,12.8024274 C186.08794,14.598151 185.448218,15.9763489 184.170226,16.9348426 C182.892234,17.8940626 181.136448,18.3733095 178.911581,18.3733095 C176.731733,18.3733095 175.04856,17.8940626 173.854073,16.9348426 C172.662491,15.9763489 171.997355,14.5894374 171.860116,12.7755605 L171.860116,12.7755605 Z M158.487675,13.2424631 L158.487675,18.2186434 L155.092284,18.2186434 L155.092284,0.337651223 L158.487675,0.337651223 L158.487675,9.02000752 L166.107701,0.337651223 L170.461586,0.337651223 L163.801507,7.54087732 L170.98077,18.2186434 L166.857795,18.2186434 L161.521453,9.97704905 L158.487675,13.2424631 Z M152.035995,18.2186434 L148.642056,18.2186434 L140.374321,6.37616213 L140.374321,18.2186434 L136.978929,18.2186434 L136.978929,0.337651223 L140.374321,0.337651223 L148.642056,12.2084517 L148.642056,0.337651223 L152.035995,0.337651223 L152.035995,18.2186434 Z M130.890315,8.03464685 C130.890315,4.6646698 129.560042,2.98294887 126.899496,2.98294887 C125.535094,2.98294887 124.51851,3.39393939 123.856278,4.22536015 C123.189689,5.05605477 122.85349,6.32242839 122.85349,8.03464685 L122.85349,10.60007 C122.85349,12.2411276 123.189689,13.4573981 123.856278,14.2532384 C124.51851,15.0461742 125.535094,15.4462727 126.899496,15.4462727 C129.560042,15.4462727 130.890315,13.8306298 130.890315,10.60007 L130.890315,8.03464685 Z M119.43704,10.6508992 L119.43704,7.85311394 C119.43704,5.24339674 120.09782,3.28211512 121.420832,1.9699952 C122.738761,0.657149155 124.567887,0 126.899496,0 C129.196976,0 131.002139,0.657149155 132.317164,1.9699952 C133.629284,3.28211512 134.284255,5.24339674 134.284255,7.85311394 L134.284255,10.6508992 C134.284255,13.2424631 133.616213,15.2008402 132.275774,16.5209476 C130.937514,17.8417811 129.110567,18.5040132 126.795659,18.5040132 C124.478573,18.5040132 122.673409,17.846864 121.37799,16.534018 C120.08475,15.2204458 119.43704,13.2577119 119.43704,10.6508992 L119.43704,10.6508992 Z M113.267826,3.29155483 L113.267826,18.2186434 L109.873886,18.2186434 L109.873886,3.29155483 L104.509952,3.29155483 L104.509952,0.337651223 L118.633939,0.337651223 L118.633939,3.29155483 L113.267826,3.29155483 Z M89.3236343,12.7755605 L92.5629076,12.7755605 C92.6834455,13.7275191 93.0704737,14.4137135 93.717457,14.8348699 C94.3651664,15.260383 95.311316,15.4716873 96.5537273,15.4716873 C98.989899,15.4716873 100.208348,14.6685857 100.208348,13.0623825 C100.208348,12.3514996 99.9658199,11.8127099 99.4822163,11.4409305 C98.9986126,11.0720556 98.2056768,10.8237186 97.0954215,10.7024546 L95.206753,10.4708186 C91.5768208,10.0198908 89.7629439,8.35196639 89.7629439,5.46777142 C89.7629439,3.79113341 90.3685378,2.47465671 91.5768208,1.51616291 C92.7880085,0.557669117 94.4392319,0.0769699563 96.5283127,0.0769699563 C98.5491371,0.0769699563 100.132104,0.535159036 101.269226,1.4493588 C102.410705,2.36718922 103.048975,3.69020111 103.188392,5.4191206 L99.9266088,5.4191206 C99.8554479,4.55284553 99.5388545,3.92328938 98.979007,3.52464309 C98.4155288,3.12890134 97.5746684,2.928489 96.4513427,2.928489 C95.328017,2.928489 94.4806214,3.12890134 93.9127864,3.52464309 C93.3398685,3.92328938 93.0552249,4.48168463 93.0552249,5.20926855 C93.0552249,5.86423931 93.3057403,6.37616213 93.8082234,6.73704957 C94.3085282,7.10301993 95.1116298,7.35353535 96.2175283,7.49004811 L98.3690564,7.77469172 C100.060943,7.9990664 101.348375,8.53059478 102.230625,9.36782459 C103.10997,10.2057805 103.551458,11.350164 103.551458,12.8024274 C103.551458,14.598151 102.913188,15.9763489 101.635197,16.9348426 C100.3543,17.8940626 98.6014186,18.3733095 96.3736466,18.3733095 C94.1952516,18.3733095 92.5106262,17.8940626 91.3204964,16.9348426 C90.127462,15.9763489 89.4637777,14.5894374 89.3236343,12.7755605 L89.3236343,12.7755605 Z M74.8663529,8.29387586 C76.7637349,8.29387586 77.7156935,7.45446765 77.7156935,5.77928191 C77.7156935,4.95003955 77.4659042,4.32847084 76.9634211,3.91312353 C76.4631164,3.50068075 75.7638516,3.29155483 74.8663529,3.29155483 L70.383216,3.29155483 L70.383216,8.29387586 L74.8663529,8.29387586 Z M70.383216,11.195498 L70.383216,18.2186434 L66.9863721,18.2186434 L66.9863721,0.337651223 L74.7596115,0.337651223 C76.714358,0.337651223 78.2559355,0.80310162 79.3843441,1.73763307 C80.5178356,2.67071226 81.0820399,4.01768649 81.0820399,5.77928191 C81.0820399,7.0587259 80.7770646,8.11669973 80.1634834,8.95320341 C79.549176,9.79188548 78.6487727,10.3996577 77.4571906,10.7816029 L81.8880461,18.2186434 L77.8442188,18.2186434 L73.9318214,11.195498 L70.383216,11.195498 Z M55.1700315,7.72241024 L63.2279146,7.72241024 L63.2279146,10.6763138 L55.1700315,10.6763138 L55.1700315,15.2647398 L64.5509265,15.2647398 L64.5509265,18.2186434 L51.7746399,18.2186434 L51.7746399,0.337651223 L64.5509265,0.337651223 L64.5509265,3.29155483 L55.1700315,3.29155483 L55.1700315,7.72241024 Z M37.8329119,0.337651223 L42.1621089,13.2163224 L46.5145421,0.337651223 L50.1452004,0.337651223 L43.508357,18.2186434 L40.7882678,18.2186434 L34.2051581,0.337651223 L37.8329119,0.337651223 Z M26.7158362,0.337651223 L26.7158362,15.2647398 L35.9427912,15.2647398 L35.9427912,18.2186434 L23.3211706,18.2186434 L23.3211706,0.337651223 L26.7158362,0.337651223 Z M16.7133725,18.2186434 L20.108038,18.2186434 L20.108038,0.337651223 L16.7133725,0.337651223 L16.7133725,18.2186434 Z M0,12.7755605 L3.23854722,12.7755605 C3.35981121,13.7275191 3.74393486,14.4137135 4.39019204,14.8348699 C5.03790148,15.260383 5.98332491,15.4716873 7.22864071,15.4716873 C9.66408631,15.4716873 10.8832614,14.6685857 10.8832614,13.0623825 C10.8832614,12.3514996 10.6414595,11.8127099 10.1593081,11.4409305 C9.67425215,11.0720556 8.87841185,10.8237186 7.77541785,10.7024546 L5.8823926,10.4708186 C2.25609108,10.0198908 0.438583525,8.35196639 0.438583525,5.46777142 C0.438583525,3.79113341 1.04780799,2.47465671 2.25609108,1.51616291 C3.46146964,0.557669117 5.11341917,0.0769699563 7.20395223,0.0769699563 C9.22550278,0.0769699563 10.8062914,0.535159036 11.9470443,1.4493588 C13.0856187,2.36718922 13.726793,3.69020111 13.8640318,5.4191206 L10.5964394,5.4191206 C10.5296352,4.55284553 10.213768,3.92328938 9.65464659,3.52464309 C9.09044229,3.12890134 8.24812956,2.928489 7.12698227,2.928489 C6.00220433,2.928489 5.1577132,3.12890134 4.58697372,3.52464309 C4.01623423,3.92328938 3.73376901,4.48168463 3.73376901,5.20926855 C3.73376901,5.86423931 3.98137991,6.37616213 4.48313689,6.73704957 C4.98416774,7.10301993 5.78581709,7.35353535 6.89098948,7.49004811 L9.04396987,7.77469172 C10.7373089,7.9990664 12.0240142,8.53059478 12.9040858,9.36782459 C13.7841574,10.2057805 14.2263715,11.350164 14.2263715,12.8024274 C14.2263715,14.598151 13.5873757,15.9763489 12.3072056,16.9348426 C11.0292138,17.8940626 9.276332,18.3733095 7.04783392,18.3733095 C4.8708912,18.3733095 3.187718,17.8940626 1.99468368,16.9348426 C0.802375488,15.9763489 0.136512753,14.5894374 0,12.7755605 L0,12.7755605 Z" id="Fill-1" fill="#141D20" mask="url(#mask-2)"></path>
                </g>
                <g id="Group-6" transform="translate(0.000000, 0.000218)">
                    <mask id="mask-4" fill="white">
                        <use xlink:href="#path-3"></use>
                    </mask>
                    <g id="Clip-5"></g>
                    <path d="M46.1623682,22.6204536 C43.3747488,20.6388403 34.590734,16.4795581 34.4629349,16.4352641 C36.8809533,18.0436457 44.5307504,23.5426408 46.1623682,25.3107714 L46.1137174,28.1753608 C41.0300696,22.804891 32.6192866,18.2948873 24.4916949,14.6671335 C24.2731292,12.0247403 22.0598799,9.94727765 19.3630269,9.94727765 C16.5151385,9.94727765 14.2118489,12.2505673 14.2118489,15.0911944 C14.2118489,17.9390827 16.5151385,20.2423724 19.3630269,20.2423724 C21.0164287,20.2423724 22.4912021,19.4566979 23.4351733,18.2397012 C23.4351733,18.2397012 23.4417085,18.2397012 23.4496959,18.2484148 L23.4576834,18.2564023 C23.4794673,18.2636636 23.510691,18.2781862 23.5324749,18.2847214 C25.7079654,19.3724666 35.6029616,24.4713632 41.457035,30.8163017 C42.7706072,32.2358891 44.0144708,34.0454092 44.6810596,35.8781655 C44.5459991,36.3145706 44.6810596,35.8781655 44.5307504,36.3080354 C44.3339687,36.8511819 44.1212121,37.3885193 43.8961113,37.9156909 C43.7523372,38.2722216 43.5867792,38.6352874 43.4270303,38.9809261 C43.2462235,39.3585145 43.0646906,39.7368291 42.8693611,40.1071563 C42.4460264,40.9298635 41.9769453,41.738048 41.4708316,42.5309838 C41.2987383,42.8047354 41.1157532,43.0755825 40.9349464,43.3464296 C40.645946,43.7603247 40.3475059,44.1618755 40.0592316,44.5365594 C39.9212666,44.7209969 39.7934674,44.9105172 39.6511456,45.0905979 C39.4391152,45.3563621 39.2198234,45.6214001 39.0012578,45.8849859 C38.9177526,45.984466 38.8356997,46.0824937 38.7449333,46.1718079 C38.6853905,46.2465995 38.6323829,46.3075946 38.5859105,46.3685896 C38.5329028,46.4281324 38.4798952,46.4891275 38.4276137,46.5501225 C38.412365,46.5660974 38.4043775,46.5726326 38.4043775,46.5726326 C34.4244499,51.0514127 29.1302239,54.472219 23.0873562,56 C15.1710688,54.0060425 8.55455712,48.7481231 4.46788812,42.1468601 C8.47105198,43.5207012 16.2101632,45.4195355 16.2101632,45.4195355 C12.9759728,44.1734936 5.56289467,41.2246729 3.215311,39.9328847 L1.97072133,36.9811595 C7.09285409,39.9641083 13.0493121,41.2406478 19.528585,42.9463311 C20.11893,45.1450578 22.1201489,46.7686882 24.5076698,46.7686882 C27.3461184,46.7686882 29.6523126,44.4653985 29.6523126,41.6175101 C29.6523126,38.7768831 27.3461184,36.4750457 24.5076698,36.4750457 C22.5434836,36.4750457 20.8283606,37.5773136 19.9678946,39.200944 L19.9599072,39.200944 C19.9599072,39.200944 19.9519197,39.200944 19.9446584,39.1922304 C19.9373971,39.1922304 19.9301358,39.1922304 19.9221483,39.1864213 C19.5220498,39.0644312 18.8344031,38.8531269 17.934726,38.5510561 L17.9281908,38.5510561 L17.9281908,38.5430687 C17.7764292,38.4987747 17.6181325,38.4377796 17.4525745,38.3840459 C17.2870165,38.3332166 17.1120188,38.2722216 16.931212,38.2039652 C16.8854657,38.1879903 16.8404455,38.1741938 16.7954254,38.1516837 C16.6654478,38.1131987 16.5311134,38.0609173 16.3873394,38.0137187 C16.2501005,37.9628895 16.1070526,37.9091557 15.9647307,37.8561481 C11.6282725,36.2847992 4.85346404,32.621465 0.0559121381,28.8833392 C-0.0348543198,28.0206948 0.0116181066,28.0206948 0.0116181066,27.1529674 L0.0116181066,12.2505673 L23.0873562,0 L46.1623682,12.2505673 L46.1623682,22.6204536 Z" id="Fill-4" fill="#141D20" mask="url(#mask-4)"></path>
                </g>
                <path d="M27.6567576,41.6220848 C27.6567576,43.3611701 26.247336,44.7720439 24.5075245,44.7720439 C22.7669869,44.7720439 21.3561131,43.3611701 21.3561131,41.6220848 C21.3561131,39.8829994 22.7669869,38.4721256 24.5075245,38.4721256 C26.247336,38.4721256 27.6567576,39.8829994 27.6567576,41.6220848" id="Fill-7" fill="#141D20"></path>
                <path d="M22.5099363,15.0941715 C22.5099363,16.833983 21.0997886,18.2441307 19.3607033,18.2441307 C17.6208918,18.2441307 16.210018,16.833983 16.210018,15.0941715 C16.210018,13.3529078 17.6208918,11.9427601 19.3607033,11.9427601 C21.0997886,11.9427601 22.5099363,13.3529078 22.5099363,15.0941715" id="Fill-9" fill="#141D20"></path>
                <path d="M66.2817339,40.9157765 C66.2817339,40.5534368 66.1858845,40.2934817 65.9941858,40.1366372 C65.8017609,39.9790667 65.4975117,39.9006444 65.0814383,39.9006444 L63.4498204,39.9006444 L63.4498204,41.9076724 L65.1300891,41.9076724 C65.5243786,41.9076724 65.8148312,41.8292501 66.0014471,41.6724057 C66.188789,41.5148351 66.2817339,41.2628674 66.2817339,40.9157765 M67.0093178,40.9077891 C67.0093178,41.4414958 66.8481166,41.8495818 66.5257141,42.132047 C66.2033117,42.4145123 65.7327784,42.5561079 65.1141142,42.5561079 L63.4498204,42.5561079 L63.4498204,44.7722618 L62.7222365,44.7722618 L62.7222365,39.2522089 L65.1141142,39.2522089 C65.7269693,39.2522089 66.1960504,39.3916261 66.5220835,39.671913 C66.8466643,39.9521998 67.0093178,40.3639164 67.0093178,40.9077891" id="Fill-11" fill="#141D20"></path>
                <path d="M71.8457904,41.7880059 C72.234997,41.7880059 72.521819,41.7110359 72.7055303,41.5563699 C72.8892416,41.4017038 72.9814603,41.1613542 72.9814603,40.8360473 C72.9814603,40.5158232 72.8841587,40.2805565 72.6895554,40.1280689 C72.4949521,39.9763074 72.1979642,39.9000635 71.7978657,39.9000635 L70.1502729,39.9000635 L70.1502729,41.7880059 L71.8457904,41.7880059 Z M70.1502729,42.4197404 L70.1502729,44.7716809 L69.4219629,44.7716809 L69.4219629,39.2523541 L71.8298155,39.2523541 C72.4375877,39.2523541 72.9030381,39.3881407 73.2254405,39.659714 C73.5485691,39.9320133 73.7097704,40.3241244 73.7097704,40.8360473 C73.7097704,41.2361458 73.6066597,41.5650834 73.4018905,41.8243124 C73.1963953,42.0828153 72.8965029,42.2570869 72.5014873,42.3478534 L73.8695193,44.7716809 L73.0380986,44.7716809 L71.749941,42.4197404 L70.1502729,42.4197404 Z" id="Fill-13" fill="#141D20"></path>
                <path d="M80.0976958,42.419813 L80.0976958,41.6443044 C80.0976958,41.0198312 79.9669921,40.560916 79.7055847,40.2682849 C79.4449035,39.9749277 79.0498878,39.8282491 78.5219901,39.8282491 C77.9882833,39.8282491 77.5925416,39.9749277 77.3340387,40.2682849 C77.0748097,40.560916 76.9462844,41.0198312 76.9462844,41.6443044 L76.9462844,42.419813 C76.9462844,43.0225023 77.0748097,43.467621 77.3340387,43.7558953 C77.5925416,44.0434434 77.9882833,44.1879436 78.5219901,44.1879436 C79.0498878,44.1879436 79.4449035,44.0434434 79.7055847,43.7558953 C79.9669921,43.467621 80.0976958,43.0225023 80.0976958,42.419813 M76.2179744,42.4118256 L76.2179744,41.6043672 C76.2179744,40.7990871 76.4191128,40.1920411 76.8221159,39.7839551 C77.2243928,39.3765952 77.7936801,39.1718261 78.5299776,39.1718261 C79.260466,39.1718261 79.8246703,39.3765952 80.2218643,39.7839551 C80.6190584,40.1920411 80.8180184,40.7990871 80.8180184,41.6043672 L80.8180184,42.4118256 C80.8180184,43.2178317 80.6161538,43.8241517 80.2138769,44.2322377 C79.8108738,44.6403236 79.2415866,44.8443666 78.5060152,44.8443666 C77.7748006,44.8443666 77.2113225,44.6403236 76.8141284,44.2322377 C76.4169344,43.8241517 76.2179744,43.2178317 76.2179744,42.4118256" id="Fill-15" fill="#141D20"></path>
                <polygon id="Fill-17" fill="#141D20" points="85.4543691 39.900354 85.4543691 44.7719713 84.7340465 44.7719713 84.7340465 39.900354 82.9506671 39.900354 82.9506671 39.2519184 87.2384746 39.2519184 87.2384746 39.900354"></polygon>
                <polygon id="Fill-19" fill="#141D20" points="90.2018905 41.644014 92.8813164 41.644014 92.8813164 42.2924495 90.2018905 42.2924495 90.2018905 44.1237536 93.3300657 44.1237536 93.3300657 44.7721892 89.4743066 44.7721892 89.4743066 39.2521363 93.3300657 39.2521363 93.3300657 39.9005718 90.2018905 39.9005718"></polygon>
                <path d="M95.7255015,42.4120434 L95.7255015,41.604585 C95.7255015,40.7985789 95.9280922,40.1915328 96.3332737,39.7841729 C96.7391813,39.3760869 97.3120992,39.1720439 98.0534796,39.1720439 C98.7200685,39.1720439 99.2457878,39.32671 99.6291853,39.6360421 C100.013309,39.9461003 100.205008,40.3774225 100.205008,40.9321871 L100.205008,40.9721243 L99.4774238,40.9721243 L99.4774238,40.9401745 C99.4774238,40.5821916 99.3532553,40.30844 99.1056444,40.1160151 C98.8573073,39.9243163 98.5044074,39.8277408 98.0454921,39.8277408 C97.5067025,39.8277408 97.1066039,39.9751456 96.8451965,40.2685027 C96.5845152,40.5611338 96.4538115,41.020049 96.4538115,41.6437961 L96.4538115,42.4200309 C96.4538115,43.0227201 96.5859675,43.4678389 96.8495533,43.7561131 C97.1138652,44.0436613 97.5146899,44.1874353 98.0534796,44.1874353 C98.5123948,44.1874353 98.8638425,44.0915859 99.109275,43.8998872 C99.3547075,43.7081884 99.4774238,43.4308061 99.4774238,43.0677403 L99.4774238,43.0357905 L100.197746,43.0357905 L100.197746,43.0757278 C100.197746,43.6312185 100.004595,44.0639929 99.6175672,44.3762296 C99.230539,44.6884662 98.7040936,44.8445845 98.0375047,44.8445845 C97.3012072,44.8445845 96.73192,44.6398154 96.329643,44.2324555 C95.92664,43.8236434 95.7255015,43.2173234 95.7255015,42.4120434" id="Fill-21" fill="#141D20"></path>
                <polygon id="Fill-23" fill="#141D20" points="104.841867 39.900354 104.841867 44.7719713 104.121544 44.7719713 104.121544 39.900354 102.338165 39.900354 102.338165 39.2519184 106.625972 39.2519184 106.625972 39.900354"></polygon>
                <path d="M113.207267,40.3803996 C113.207267,40.5140079 113.242121,40.64689 113.311829,40.7804982 C113.380812,40.9133803 113.508611,41.0970916 113.695227,41.3323582 L113.73589,41.3802829 L113.783089,41.3483331 C114.055388,41.1718831 114.246361,41.0135864 114.355281,40.8719908 C114.4642,40.7303951 114.519386,40.56992 114.519386,40.3883871 C114.519386,40.1908793 114.459117,40.0325826 114.339306,39.9120447 C114.219494,39.7915069 114.060471,39.7319641 113.862963,39.7319641 C113.666182,39.7319641 113.507159,39.7915069 113.387347,39.9120447 C113.267535,40.0325826 113.207267,40.1879747 113.207267,40.3803996 L113.207267,40.3803996 Z M114.798947,43.6755851 L113.551453,42.1724926 C113.268262,42.3591084 113.057683,42.5464504 112.919718,42.7359707 C112.781027,42.9254911 112.711319,43.1295341 112.711319,43.3480997 C112.711319,43.608781 112.797002,43.823716 112.967643,43.9921785 C113.138284,44.1599149 113.377907,44.2434201 113.68724,44.2434201 C113.88983,44.2434201 114.077898,44.1998522 114.251444,44.1119902 C114.424989,44.0241283 114.607248,43.8781759 114.798947,43.6755851 L114.798947,43.6755851 Z M116.511166,44.7720439 L116.239592,44.7720439 C116.042085,44.7720439 115.879431,44.7400941 115.750906,44.6761946 C115.623107,44.6115688 115.484415,44.4946616 115.335558,44.3240207 L115.183071,44.1403094 C114.943447,44.3959077 114.699467,44.579619 114.45113,44.6914433 C114.203519,44.8039937 113.932672,44.8599059 113.639315,44.8599059 C113.303116,44.8599059 113.015568,44.794554 112.775218,44.6638503 C112.535595,44.5331466 112.35261,44.3559705 112.226989,44.1323219 C112.102094,43.9079473 112.039647,43.6545273 112.039647,43.3720621 C112.039647,43.0525642 112.131866,42.7570286 112.315577,42.4876337 C112.499288,42.2182389 112.78611,41.9590099 113.175317,41.7077683 C112.945859,41.4253031 112.782479,41.1835013 112.683726,40.983815 C112.584972,40.7841288 112.535595,40.5851688 112.535595,40.3883871 C112.535595,40.1538466 112.591507,39.9439945 112.703331,39.7602832 C112.815155,39.5765719 112.972726,39.4306194 113.175317,39.3238781 C113.377907,39.2171367 113.607365,39.1641291 113.862963,39.1641291 C114.252896,39.1641291 114.570216,39.2788579 114.814922,39.5083155 C115.060355,39.737047 115.183071,40.0333087 115.183071,40.3956484 C115.183071,40.6730307 115.103196,40.9184632 114.943447,41.1319459 C114.782972,41.3454286 114.522291,41.5727078 114.159225,41.8123313 L114.119288,41.8362936 L115.231722,43.1723759 L115.951318,42.3322415 L116.407329,42.731614 L115.623107,43.6436353 L115.815531,43.8752713 C115.905572,43.9769298 115.989803,44.0480907 116.066773,44.0873018 C116.144469,44.1279651 116.239592,44.1475707 116.351417,44.1475707 L116.511166,44.1475707 L116.511166,44.7720439 Z" id="Fill-25" fill="#141D20"></path>
                <path d="M125.673495,43.6997653 C125.931998,43.4173001 126.061249,42.9801688 126.061249,42.3876454 L126.061249,41.6840238 C126.061249,41.0762516 125.931998,40.6267761 125.673495,40.3363234 C125.414992,40.0458708 125.01925,39.9006444 124.484817,39.9006444 L123.173424,39.9006444 L123.173424,44.1238262 L124.484817,44.1238262 C125.01925,44.1238262 125.414992,43.9829567 125.673495,43.6997653 L125.673495,43.6997653 Z M124.484817,39.2522089 C125.221115,39.2522089 125.78895,39.4518951 126.189048,39.8519936 C126.589147,40.2520922 126.788833,40.8489724 126.788833,41.6440866 L126.788833,42.3723966 C126.788833,43.1667847 126.588421,43.7651172 126.185418,44.1681202 C125.782415,44.5703972 125.210223,44.7722618 124.469569,44.7722618 L122.44584,44.7722618 L122.44584,39.2522089 L124.484817,39.2522089 Z" id="Fill-27" fill="#141D20"></path>
                <mask id="mask-6" fill="white">
                    <use xlink:href="#path-5"></use>
                </mask>
                <g id="Clip-30"></g>
                <polygon id="Fill-29" fill="#141D20" mask="url(#mask-6)" points="129.497595 44.7718261 130.225905 44.7718261 130.225905 39.2517732 129.497595 39.2517732"></polygon>
                <polygon id="Fill-31" fill="#141D20" mask="url(#mask-6)" points="133.26738 39.2522089 134.89101 43.7876272 136.491404 39.2522089 137.250938 39.2522089 135.195259 44.7722618 134.587487 44.7722618 132.507846 39.2522089"></polygon>
                <polygon id="Fill-32" fill="#141D20" mask="url(#mask-6)" points="140.208182 41.644014 142.887608 41.644014 142.887608 42.2924495 140.208182 42.2924495 140.208182 44.1237536 143.336357 44.1237536 143.336357 44.7721892 139.479872 44.7721892 139.479872 39.2521363 143.336357 39.2521363 143.336357 39.9005718 140.208182 39.9005718"></polygon>
                <path d="M148.282839,41.7880059 C148.672045,41.7880059 148.959593,41.7110359 149.143305,41.5563699 C149.327016,41.4017038 149.418509,41.1613542 149.418509,40.8360473 C149.418509,40.5158232 149.321933,40.2805565 149.12733,40.1280689 C148.932726,39.9763074 148.635013,39.9000635 148.23564,39.9000635 L146.587321,39.9000635 L146.587321,41.7880059 L148.282839,41.7880059 Z M146.587321,42.4197404 L146.587321,44.7716809 L145.859011,44.7716809 L145.859011,39.2523541 L148.26759,39.2523541 C148.874636,39.2523541 149.340086,39.3881407 149.662489,39.659714 C149.985617,39.9320133 150.146819,40.3241244 150.146819,40.8360473 C150.146819,41.2361458 150.044434,41.5650834 149.839665,41.8243124 C149.633444,42.0828153 149.333551,42.2570869 148.939262,42.3478534 L150.307294,44.7716809 L149.475147,44.7716809 L148.186989,42.4197404 L146.587321,42.4197404 Z" id="Fill-33" fill="#141D20" mask="url(#mask-6)"></path>
                <path d="M152.45599,43.1800003 L153.159612,43.1800003 C153.192287,43.537257 153.3288,43.796486 153.571328,43.9555089 C153.814582,44.115984 154.165304,44.1958585 154.623493,44.1958585 C155.573273,44.1958585 156.047437,43.8785389 156.047437,43.2438998 C156.047437,42.9665176 155.956671,42.7530348 155.775138,42.6041779 C155.594331,42.4545947 155.31477,42.3587453 154.93573,42.3166297 L154.192171,42.2280416 C153.119674,42.0951596 152.583789,41.60139 152.583789,40.7481853 C152.583789,40.2522374 152.765322,39.8673876 153.127662,39.5921837 C153.490728,39.3177059 153.985949,39.1797409 154.616232,39.1797409 C155.229087,39.1797409 155.709786,39.312623 156.059781,39.5762088 C156.409051,39.8397946 156.610189,40.2304534 156.663923,40.7481853 L155.959575,40.7481853 C155.932708,40.4279613 155.809992,40.1897901 155.591426,40.0322195 C155.373587,39.8746489 155.047554,39.7962267 154.616232,39.7962267 C154.178374,39.7962267 153.847984,39.8731967 153.62361,40.0278627 C153.399961,40.1825288 153.288137,40.4069034 153.288137,40.7002606 C153.288137,40.955859 153.374546,41.1562713 153.548092,41.3000454 C153.720911,41.4438195 153.991758,41.5396688 154.359907,41.5883197 L155.135416,41.6761816 C156.223161,41.8199557 156.767034,42.3267956 156.767034,43.1959752 C156.767034,43.7129809 156.576061,44.1130794 156.191937,44.3962708 C155.807814,44.6780099 155.274107,44.8203317 154.591543,44.8203317 C153.930037,44.8203317 153.418114,44.6809144 153.055775,44.4042582 C152.692709,44.1268759 152.493023,43.71879 152.45599,43.1800003" id="Fill-34" fill="#141D20" mask="url(#mask-6)"></path>
                <polygon id="Fill-35" fill="#141D20" mask="url(#mask-6)" points="159.33144 44.7718261 160.05975 44.7718261 160.05975 39.2517732 159.33144 39.2517732"></polygon>
                <polygon id="Fill-36" fill="#141D20" mask="url(#mask-6)" points="163.597536 41.6681215 166.28495 41.6681215 166.28495 42.3165571 163.597536 42.3165571 163.597536 44.7716083 162.869226 44.7716083 162.869226 39.2522815 166.725712 39.2522815 166.725712 39.8999909 163.597536 39.8999909"></polygon>
                <polygon id="Fill-37" fill="#141D20" mask="url(#mask-6)" points="171.297073 44.7719713 170.577477 44.7719713 170.577477 42.5405687 168.665572 39.2519184 169.481018 39.2519184 170.945626 41.9320704 172.393532 39.2519184 173.208978 39.2519184 171.297073 42.54783"></polygon>
                <polygon id="Fill-38" fill="#141D20" mask="url(#mask-6)" points="180.878599 44.7719713 180.159002 44.7719713 180.159002 42.5405687 178.247097 39.2519184 179.062543 39.2519184 180.527151 41.9320704 181.975057 39.2519184 182.790503 39.2519184 180.878599 42.54783"></polygon>
                <path d="M188.763227,42.419813 L188.763227,41.6443044 C188.763227,41.0198312 188.631797,40.560916 188.371116,40.2682849 C188.109708,39.9749277 187.715419,39.8282491 187.186795,39.8282491 C186.653814,39.8282491 186.258072,39.9749277 185.998843,40.2682849 C185.740341,40.560916 185.611089,41.0198312 185.611089,41.6443044 L185.611089,42.419813 C185.611089,43.0225023 185.740341,43.467621 185.998843,43.7558953 C186.258072,44.0434434 186.653814,44.1879436 187.186795,44.1879436 C187.715419,44.1879436 188.109708,44.0434434 188.371116,43.7558953 C188.631797,43.467621 188.763227,43.0225023 188.763227,42.419813 M184.882779,42.4118256 L184.882779,41.6043672 C184.882779,40.7990871 185.084644,40.1920411 185.486921,39.7839551 C185.889924,39.3765952 186.459211,39.1718261 187.194782,39.1718261 C187.925997,39.1718261 188.489475,39.3765952 188.886669,39.7839551 C189.284589,40.1920411 189.482823,40.7990871 189.482823,41.6043672 L189.482823,42.4118256 C189.482823,43.2178317 189.281685,43.8241517 188.878682,44.2322377 C188.475678,44.6403236 187.906391,44.8443666 187.171546,44.8443666 C186.440331,44.8443666 185.876127,44.6403236 185.479659,44.2322377 C185.081739,43.8241517 184.882779,43.2178317 184.882779,42.4118256" id="Fill-39" fill="#141D20" mask="url(#mask-6)"></path>
                <path d="M192.135092,42.7963849 L192.135092,39.2521363 L192.863402,39.2521363 L192.863402,42.7484602 C192.863402,43.7025972 193.351362,44.1796657 194.327283,44.1796657 C195.303204,44.1796657 195.791165,43.7025972 195.791165,42.7484602 L195.791165,39.2521363 L196.518748,39.2521363 L196.518748,42.7963849 C196.518748,43.4361069 196.325597,43.932781 195.938569,44.2878593 C195.552267,44.6429377 195.015656,44.8201138 194.327283,44.8201138 C193.63891,44.8201138 193.101573,44.6429377 192.715271,44.2878593 C192.328969,43.932781 192.135092,43.4361069 192.135092,42.7963849" id="Fill-40" fill="#141D20" mask="url(#mask-6)"></path>
                <path d="M201.698899,41.7880059 C202.088106,41.7880059 202.375654,41.7110359 202.559365,41.5563699 C202.743076,41.4017038 202.834569,41.1613542 202.834569,40.8360473 C202.834569,40.5158232 202.737994,40.2805565 202.54339,40.1280689 C202.348787,39.9763074 202.051073,39.9000635 201.651701,39.9000635 L200.003382,39.9000635 L200.003382,41.7880059 L201.698899,41.7880059 Z M200.003382,42.4197404 L200.003382,44.7716809 L199.275072,44.7716809 L199.275072,39.2523541 L201.68365,39.2523541 C202.290696,39.2523541 202.756147,39.3881407 203.078549,39.659714 C203.401678,39.9320133 203.562879,40.3241244 203.562879,40.8360473 C203.562879,41.2361458 203.460495,41.5650834 203.255725,41.8243124 C203.049504,42.0828153 202.749612,42.2570869 202.355322,42.3478534 L203.723354,44.7716809 L202.891207,44.7716809 L201.60305,42.4197404 L200.003382,42.4197404 Z" id="Fill-41" fill="#141D20" mask="url(#mask-6)"></path>
                <path d="M211.617277,40.1478197 L210.513557,42.9078461 L212.721723,42.9078461 L211.617277,40.1478197 Z M210.265946,43.5236058 L209.769272,44.7718261 L209.009738,44.7718261 L211.313754,39.2524993 L211.929513,39.2524993 L214.241517,44.7718261 L213.473995,44.7718261 L212.969334,43.5236058 L210.265946,43.5236058 Z" id="Fill-42" fill="#141D20" mask="url(#mask-6)"></path>
                <path d="M216.142094,43.1800003 L216.845715,43.1800003 C216.878391,43.537257 217.014904,43.796486 217.257432,43.9555089 C217.500686,44.115984 217.851408,44.1958585 218.309597,44.1958585 C219.259377,44.1958585 219.733541,43.8785389 219.733541,43.2438998 C219.733541,42.9665176 219.642774,42.7530348 219.461241,42.6041779 C219.280435,42.4545947 219.000874,42.3587453 218.621833,42.3166297 L217.878274,42.2280416 C216.805778,42.0951596 216.269893,41.60139 216.269893,40.7481853 C216.269893,40.2522374 216.451426,39.8673876 216.813765,39.5921837 C217.176831,39.3177059 217.672053,39.1797409 218.302335,39.1797409 C218.91519,39.1797409 219.39589,39.312623 219.745885,39.5762088 C220.095154,39.8397946 220.296293,40.2304534 220.350027,40.7481853 L219.645679,40.7481853 C219.618812,40.4279613 219.496096,40.1897901 219.27753,40.0322195 C219.059691,39.8746489 218.733657,39.7962267 218.302335,39.7962267 C217.864478,39.7962267 217.534088,39.8731967 217.309713,40.0278627 C217.086065,40.1825288 216.97424,40.4069034 216.97424,40.7002606 C216.97424,40.955859 217.06065,41.1562713 217.234196,41.3000454 C217.407015,41.4438195 217.677862,41.5396688 218.046011,41.5883197 L218.821519,41.6761816 C219.909265,41.8199557 220.453137,42.3267956 220.453137,43.1959752 C220.453137,43.7129809 220.262165,44.1130794 219.878041,44.3962708 C219.493917,44.6780099 218.960211,44.8203317 218.277647,44.8203317 C217.616141,44.8203317 217.104218,44.6809144 216.741878,44.4042582 C216.378813,44.1268759 216.179126,43.71879 216.142094,43.1800003" id="Fill-43" fill="#141D20" mask="url(#mask-6)"></path>
                <path d="M222.633348,43.1800003 L223.336969,43.1800003 C223.369645,43.537257 223.506158,43.796486 223.748686,43.9555089 C223.99194,44.115984 224.342662,44.1958585 224.800851,44.1958585 C225.750631,44.1958585 226.224795,43.8785389 226.224795,43.2438998 C226.224795,42.9665176 226.134028,42.7530348 225.952495,42.6041779 C225.771689,42.4545947 225.492128,42.3587453 225.113087,42.3166297 L224.369528,42.2280416 C223.297032,42.0951596 222.761147,41.60139 222.761147,40.7481853 C222.761147,40.2522374 222.94268,39.8673876 223.305019,39.5921837 C223.668085,39.3177059 224.163307,39.1797409 224.793589,39.1797409 C225.406444,39.1797409 225.887144,39.312623 226.237139,39.5762088 C226.586408,39.8397946 226.787547,40.2304534 226.841281,40.7481853 L226.136933,40.7481853 C226.110066,40.4279613 225.98735,40.1897901 225.768784,40.0322195 C225.550945,39.8746489 225.224912,39.7962267 224.793589,39.7962267 C224.355732,39.7962267 224.025342,39.8731967 223.800967,40.0278627 C223.577319,40.1825288 223.465494,40.4069034 223.465494,40.7002606 C223.465494,40.955859 223.551904,41.1562713 223.72545,41.3000454 C223.898269,41.4438195 224.169116,41.5396688 224.537265,41.5883197 L225.312773,41.6761816 C226.400519,41.8199557 226.944391,42.3267956 226.944391,43.1959752 C226.944391,43.7129809 226.753419,44.1130794 226.369295,44.3962708 C225.985171,44.6780099 225.451465,44.8203317 224.768901,44.8203317 C224.107395,44.8203317 223.595472,44.6809144 223.233132,44.4042582 C222.870067,44.1268759 222.67038,43.71879 222.633348,43.1800003" id="Fill-44" fill="#141D20" mask="url(#mask-6)"></path>
                <polygon id="Fill-45" fill="#141D20" mask="url(#mask-6)" points="230.181123 41.644014 232.860549 41.644014 232.860549 42.2924495 230.181123 42.2924495 230.181123 44.1237536 233.309298 44.1237536 233.309298 44.7721892 229.452813 44.7721892 229.452813 39.2521363 233.309298 39.2521363 233.309298 39.9005718 230.181123 39.9005718"></polygon>
                <polygon id="Fill-46" fill="#141D20" mask="url(#mask-6)" points="237.816833 39.900354 237.816833 44.7719713 237.097237 44.7719713 237.097237 39.900354 235.313131 39.900354 235.313131 39.2519184 239.600939 39.2519184 239.600939 39.900354"></polygon>
                <path d="M241.508487,43.1800003 L242.212108,43.1800003 C242.244784,43.537257 242.381297,43.796486 242.623825,43.9555089 C242.867079,44.115984 243.217801,44.1958585 243.67599,44.1958585 C244.62577,44.1958585 245.099934,43.8785389 245.099934,43.2438998 C245.099934,42.9665176 245.009167,42.7530348 244.827634,42.6041779 C244.646828,42.4545947 244.367267,42.3587453 243.988226,42.3166297 L243.244667,42.2280416 C242.172171,42.0951596 241.636286,41.60139 241.636286,40.7481853 C241.636286,40.2522374 241.817819,39.8673876 242.180158,39.5921837 C242.543224,39.3177059 243.038446,39.1797409 243.668728,39.1797409 C244.281583,39.1797409 244.762283,39.312623 245.112278,39.5762088 C245.461547,39.8397946 245.662686,40.2304534 245.71642,40.7481853 L245.012072,40.7481853 C244.985205,40.4279613 244.862489,40.1897901 244.643923,40.0322195 C244.426084,39.8746489 244.100051,39.7962267 243.668728,39.7962267 C243.230871,39.7962267 242.900481,39.8731967 242.676106,40.0278627 C242.452458,40.1825288 242.340634,40.4069034 242.340634,40.7002606 C242.340634,40.955859 242.427043,41.1562713 242.600589,41.3000454 C242.773408,41.4438195 243.044255,41.5396688 243.412404,41.5883197 L244.187913,41.6761816 C245.275658,41.8199557 245.81953,42.3267956 245.81953,43.1959752 C245.81953,43.7129809 245.628558,44.1130794 245.244434,44.3962708 C244.86031,44.6780099 244.326604,44.8203317 243.64404,44.8203317 C242.982534,44.8203317 242.470611,44.6809144 242.108271,44.4042582 C241.745206,44.1268759 241.545519,43.71879 241.508487,43.1800003" id="Fill-47" fill="#141D20" mask="url(#mask-6)"></path>
            </g>
        </g>
    </g>
</svg>