<svg width="299" height="216" viewBox="0 0 299 216" fill="none" xmlns="http://www.w3.org/2000/svg">
<path fill-rule="evenodd" clip-rule="evenodd" d="M19.8657 133.528C19.8657 133.528 22.6213 126.268 23.7275 122.687C24.8271 119.103 23.7275 106.202 23.7275 106.202L11.5939 100.907C11.5939 100.907 0.568205 115.241 1.39703 118.827C2.22256 122.412 7.73541 129.376 7.73541 129.376L15.1783 135.916L19.8657 133.528Z" fill="#CC7A63"/>
<path fill-rule="evenodd" clip-rule="evenodd" d="M133.385 178.021C133.495 178.386 145.271 212.404 177.09 212.404C178.148 212.404 179.223 212.365 180.326 212.277C197.868 211.054 211.612 204.21 220.07 192.504C224.044 186.998 226.8 180.546 228.333 173.172C230.993 160.477 230.037 145.036 225.437 127.04C219.877 105.302 207.651 87.2795 195.832 69.8477C193.174 65.9298 190.412 61.8731 187.792 57.8446C182.806 50.1986 177.242 38.7122 179.081 27.424C180.474 18.9079 188.683 8.9983 198.245 8.3742C205.8 7.89705 210.509 16.1209 211.778 18.6569C214.299 23.7009 215.496 29.5803 216.655 35.2813C217.116 37.5383 219.319 39.0028 221.587 38.5422C223.846 38.0815 225.31 35.8691 224.848 33.6105C223.582 27.3926 222.272 20.9568 219.262 14.9239C214.329 5.05559 206.284 -0.50679 197.701 0.0364048C183.598 0.94283 172.771 14.2519 170.832 26.0734C168.562 40.0066 174.985 53.5271 180.781 62.4163C183.459 66.5142 186.23 70.6006 188.91 74.5433C200.85 92.16 212.14 108.783 217.326 129.104C223.456 153.061 222.759 171.666 215.278 184.53C214.661 185.601 213.994 186.62 213.286 187.609C204.502 199.777 190.189 203.208 179.736 203.944C151.867 205.896 141.412 175.682 141.313 175.373C140.575 173.187 138.204 171.998 136.018 172.741C133.832 173.463 132.645 175.835 133.385 178.021Z" fill="#5DD39C"/>
<path fill-rule="evenodd" clip-rule="evenodd" d="M133.385 178.021C133.495 178.386 145.271 212.404 177.09 212.404C178.148 212.404 179.223 212.365 180.326 212.277C197.868 211.054 211.612 204.21 220.07 192.504C224.044 186.998 226.8 180.546 228.333 173.172C224.848 177.536 220.557 181.534 215.278 184.529C214.661 185.601 213.994 186.62 213.286 187.609C204.502 199.777 190.189 203.208 179.736 203.944C151.867 205.896 141.412 175.682 141.313 175.373C140.575 173.187 138.204 171.998 136.018 172.741C133.832 173.463 132.645 175.835 133.385 178.021Z" fill="#49A97D"/>
<path fill-rule="evenodd" clip-rule="evenodd" d="M9.39336 132.448C9.08461 133.006 11.3532 134.722 13.4186 136.115C15.1341 142.835 20.2341 161.076 27.7167 171.641C26.5494 171.441 25.7652 171.528 25.6578 172.03C25.0552 174.611 33.2939 177.525 33.2939 177.525L32.8581 179.486C32.4271 181.453 40.1507 180.505 40.1507 180.505C40.1507 180.505 39.1568 183.056 40.1507 183.056C40.6494 183.056 41.6697 181.77 42.5761 180.49C43.4793 179.219 44.2619 177.939 44.2619 177.939C47.1561 176.491 50.4054 174.094 53.8495 171.097C56.7619 168.558 59.7966 165.576 62.8527 162.372C65.1212 159.974 67.3947 157.45 69.622 154.901C77.9135 145.41 85.5381 135.418 89.9166 129.494C92.3552 126.205 93.7884 124.173 93.7884 124.173L88.8682 68.8447C87.1825 69.9707 85.4852 71.4649 83.7847 73.2018C80.2877 76.8127 76.8288 81.5396 73.7496 86.5687C72.9818 86.8907 70.431 87.9622 68.5356 89.288C67.4046 90.0657 66.4883 90.9457 66.3496 91.8125C66.0012 93.7888 68.4249 92.7453 69.5708 92.146C69.721 92.0733 69.8465 92.0073 69.9456 91.9512C69.8465 92.0073 69.721 92.0898 69.584 92.2021C67.9924 93.2868 63.8251 96.508 65.1608 99.2636C65.4844 99.9092 66.0012 100.201 66.6418 100.272C65.8741 102.056 65.1922 103.781 64.6193 105.414C62.1823 112.297 56.9419 124.814 51.8682 135.834C49.4858 141.007 47.1446 145.845 45.1534 149.635C43.6741 152.446 42.3764 154.679 41.389 156.042C37.0418 162.063 25.3606 138.805 21.8769 131.502C22.8527 129.258 24.1768 125.925 23.4504 125.954C22.3524 125.996 20.8731 129.372 20.8731 129.372C20.8731 129.372 20.6931 124.27 18.2116 125.954C15.7268 127.64 16.1627 131.794 16.1627 131.794C16.1627 131.794 14.2524 129.177 12.7912 129.372C11.3697 129.565 12.6806 133.201 12.7764 133.51C12.5419 133.34 9.92004 131.517 9.39336 132.448Z" fill="#5DD39C"/>
<path fill-rule="evenodd" clip-rule="evenodd" d="M45.1538 149.636C47.145 145.845 49.4862 141.006 51.867 135.835C55.212 139.505 61.1723 142.696 65.4171 144.668C66.9807 138.072 68.6746 133.523 68.6746 133.523C68.6746 133.523 64.7996 136.462 65.6252 133.523C66.4589 130.579 71.7836 125.955 71.7836 125.955C71.7836 125.955 67.2812 122.96 68.6746 121.035C70.0681 119.098 71.7836 122.136 71.7836 122.136C69.6207 114.386 74.1545 104.215 74.1545 104.215L89.917 129.495C84.3547 137.007 73.5816 151.069 62.8531 162.372C59.797 165.577 56.7623 168.558 53.8499 171.098C52.3722 168.297 54.1405 163.846 54.1405 163.846C54.1405 163.846 51.7564 164.946 50.4586 163.846C49.1791 162.75 52.6776 161.091 52.6776 161.091C47.9672 158.203 45.9579 152.906 45.1538 149.636Z" fill="#49A97D"/>
<path fill-rule="evenodd" clip-rule="evenodd" d="M68.5361 89.2883C68.8317 90.2756 69.1767 91.3191 69.5713 92.1446C69.5713 92.171 69.5845 92.1859 69.5845 92.2024C70.2119 93.5794 70.9054 94.3884 71.5476 93.6091C71.5476 93.6091 70.1822 100.631 77.6219 97.1176C85.0631 93.6091 90.9722 79.9632 84.6355 73.889C84.3548 73.6232 84.0742 73.4019 83.7836 73.2021C80.2883 76.8113 76.8293 81.5399 73.7485 86.569C72.9808 86.891 70.4315 87.9609 68.5361 89.2883Z" fill="#49A97D"/>
<path fill-rule="evenodd" clip-rule="evenodd" d="M76.382 155.376C78.8107 162.299 82.0006 169.578 85.0814 176.045C90.4721 187.358 95.5194 196.155 95.5194 196.155C95.5194 196.155 92.8975 197.938 94.1391 198.772C95.3774 199.596 97.7351 197.466 97.7351 197.466C97.7351 197.466 97.8605 200.487 100.08 200.667C102.279 200.836 102.824 197.671 102.824 197.671C102.824 197.671 103.241 200.641 105.038 200.667C106.748 200.697 105.175 197.161 105.051 196.852C105.383 197.129 110.042 201.072 111.378 199.873C112.524 198.845 114.693 198.788 112.968 195.363L113.438 195.346C125.387 204.057 129.605 208.543 141.009 200.667C146.025 197.2 151.044 191.527 155.279 184.459C161.858 173.519 166.556 159.248 166.427 144.699C167.224 137.411 165.94 128.812 161.731 118.668C145.105 78.5839 108.967 57.1781 95.0306 60.4917C92.6482 61.0663 90.3879 62.3607 88.2845 64.2297C80.9274 70.7381 75.5483 84.1215 74.3612 97.1186C74.3612 97.1351 74.3612 97.1483 74.3496 97.1632C73.6941 104.38 74.3347 111.488 76.6611 117.218L76.6743 117.23C77.8218 120.101 79.4084 122.637 81.4673 124.66C82.656 125.817 83.7837 127.169 84.8849 128.634C80.8977 127.07 77.5147 126.814 75.2148 128.563C70.222 132.326 72.1471 143.322 76.382 155.376Z" fill="#5DD39C"/>
<path fill-rule="evenodd" clip-rule="evenodd" d="M92.0168 62.0785C92.0168 62.0785 100.086 57.2607 106.703 57.2607C113.319 57.2607 105.052 60.1583 105.052 60.1583C105.052 60.1583 118.075 60.5694 120.844 63.5067C123.61 66.4472 115.216 65.3971 115.216 65.3971C115.216 65.3971 126.365 67.6855 127.102 70.6772C127.84 73.6639 92.0168 62.0785 92.0168 62.0785Z" fill="#5DD39C"/>
<path fill-rule="evenodd" clip-rule="evenodd" d="M164.347 125.955C164.347 125.955 171.042 135.183 170.299 137.022C169.553 138.86 167.353 135.368 167.353 135.368C167.353 135.368 170.165 143.28 168.271 145.657C166.374 148.038 164.347 125.955 164.347 125.955Z" fill="#5DD39C"/>
<path fill-rule="evenodd" clip-rule="evenodd" d="M93.7889 136.099C103.52 146.123 120.379 196.098 120.379 196.098L107.853 183.057L111.378 199.873C112.523 198.844 114.693 198.788 112.967 195.362L113.438 195.345C125.387 204.058 129.605 208.542 141.009 200.667C146.025 197.2 151.044 191.527 155.279 184.458C153.23 179.599 150.526 174.678 146.946 170.104C131.517 150.412 137.344 133.524 137.344 133.524L145.704 135.889C145.704 135.889 144.466 129.508 138.957 125.955C138.957 125.955 142.875 109.05 136.227 98.9159C129.582 88.7702 98.5109 108.282 98.5109 108.282C98.5109 108.282 101.47 133.396 100.089 135.889C98.7255 138.359 77.3048 117.827 76.6741 117.229C77.8216 120.101 79.4083 122.637 81.4671 124.661C82.6559 125.816 83.7852 127.169 84.8848 128.633C80.8975 127.071 77.5145 126.814 75.2146 128.562C75.2146 128.562 84.0609 126.077 93.7889 136.099Z" fill="#49A97D"/>
<path fill-rule="evenodd" clip-rule="evenodd" d="M76.3821 155.376C78.8108 162.298 82.0006 169.578 85.0815 176.045C98.0554 185.852 117.066 195.136 123.518 189.519C133.647 180.684 138.876 130.892 138.876 130.892L102.158 129.376C102.158 129.376 107.848 171.477 76.3821 155.376H101.728Z" fill="#49A97D"/>
<path fill-rule="evenodd" clip-rule="evenodd" d="M74.3616 97.1179C74.5184 95.6171 76.6615 91.3673 76.6615 91.3673C76.6615 91.3673 79.9669 95.49 82.1694 94.2021C84.3686 92.9077 84.636 86.4703 84.636 86.4703C84.636 86.4703 86.3069 88.227 88.7851 85.1891C91.2254 82.2205 88.3806 64.8283 88.2849 64.229C80.9278 70.7391 75.5487 84.1208 74.3616 97.1179Z" fill="#49A97D"/>
<mask id="mask0" style="mask-type:alpha" maskUnits="userSpaceOnUse" x="71" y="193" width="42" height="24">
<path fill-rule="evenodd" clip-rule="evenodd" d="M71.7793 193.492H112.26V216H71.7793V193.492Z" fill="white"/>
</mask>
<g mask="url(#mask0)">
<path fill-rule="evenodd" clip-rule="evenodd" d="M96.5929 193.492C96.867 198.08 97.7041 201.04 96.053 201.354C94.3987 201.666 82.2651 203.043 82.2651 203.043L71.7793 210.833C71.7793 210.833 74.2872 215.186 78.7731 213.384C82.3493 211.95 97.1592 212.414 97.1592 212.414C97.1592 212.414 93.8456 212.4 93.8456 214.202V216C93.8456 216 111.083 214.623 112.113 211.042C113.141 207.453 108.457 193.492 108.457 193.492H96.5929Z" fill="#CC7A63"/>
</g>
<path fill-rule="evenodd" clip-rule="evenodd" d="M87.4538 59.7743C87.9409 47.0216 69.4838 35.9662 59.386 36.4483C49.2816 36.9288 50.7692 48.5703 45.9679 51.7089C41.1601 54.8542 34.0044 50.1471 32.9709 64.389C31.9357 78.6409 37.9323 79.7883 53.7873 81.933C69.6423 84.0745 86.9618 72.6542 87.4538 59.7743Z" fill="#CC7A63"/>
<path fill-rule="evenodd" clip-rule="evenodd" d="M52.4128 52.5995C51.9175 53.2401 51.1234 53.4201 50.7205 53.0602C50.3143 52.7085 50.4448 51.9342 50.9715 51.3249C51.5031 50.714 52.2659 50.5143 52.6605 50.8626C53.0567 51.211 52.9478 51.9804 52.4128 52.5995Z" fill="#1A2E35"/>
<path d="M36.852 55.687C36.852 55.687 36.0165 56.7833 35.8234 57.1994C35.2141 58.4987 34.3655 62.2945 38.1002 62.4943C40.6923 62.6264 41.389 60.9621 41.389 60.9621" stroke="#1A2E35" stroke-width="0.503" stroke-linecap="round" stroke-linejoin="round"/>
<path d="M35.4232 60.7174C35.5107 62.7482 33.8002 62.314 34.1635 60.6497" stroke="#1A2E35" stroke-width="0.503" stroke-linecap="round" stroke-linejoin="round"/>
<path fill-rule="evenodd" clip-rule="evenodd" d="M40.1508 53.5681L36.9461 53.0464L36.4392 56.2511C36.4392 56.2511 39.4474 55.0111 40.1508 53.5681Z" fill="#B84D3C"/>
<path fill-rule="evenodd" clip-rule="evenodd" d="M38.9513 80.1627C39.3211 72.7197 47.2676 61.0039 47.9545 59.1448C48.6463 57.2808 59.0016 60.3319 60.3539 56.6402C61.7044 52.9435 56.3996 40.3196 52.4651 39.9547C52.4651 39.9547 50.2445 38.5876 54.1591 35.3218C58.0738 32.0478 66.6262 30.2152 68.1996 30.2003C69.7731 30.1805 67.6251 33.1969 67.6251 33.1969C69.8903 32.7198 82.7949 34.569 83.987 36.3092C85.1757 38.0444 81.0217 38.3581 81.0217 38.3581C81.0217 38.3581 88.9995 42.5832 92.1646 46.9006C92.7441 47.6932 93.1437 49.0322 93.4012 50.6948C93.4012 50.6948 95.9505 57.0612 98.7077 55.6875C101.46 54.3205 103.838 57.7414 98.7077 60.1586C96.5019 61.1987 94.8426 61.6808 93.6258 61.9153C93.3005 67.2762 92.5658 72.0659 92.1299 72.5827C91.202 73.684 88.4481 71.2371 88.4481 71.2371C88.4481 71.2371 88.9913 80.45 87.0348 81.5132C85.0767 82.5798 78.773 83.4994 78.773 83.4994C78.773 83.4994 80.0278 87.0905 77.9606 87.9011C76.9568 88.2941 74.5446 87.921 72.3207 87.4388C72.5369 88.4377 72.6542 89.7437 72.2447 90.9836C71.6916 92.6264 69.2893 89.0684 67.7291 86.4763C67.5079 87.1218 66.6625 89.1956 64.7473 89.6001C62.4837 90.0756 52.3562 85.8456 52.3562 85.8456C52.3562 85.8456 50.1273 88.167 48.255 87.5726C46.3827 86.9782 41.3899 83.1428 41.3899 83.1428C41.3899 83.1428 38.5798 87.5973 38.9513 80.1627Z" fill="#5DD39C"/>
<path fill-rule="evenodd" clip-rule="evenodd" d="M75.6854 53.9004C75.6854 53.9004 83.0392 50.8526 84.3617 54.8316C85.6775 58.8173 82.1493 68.9464 77.6782 68.7978C73.1973 68.6542 69.7499 70.5034 68.675 68.3521C68.675 68.3521 71.0047 68.182 70.8693 67.0576C70.7389 65.9349 69.9909 64.8502 69.9909 64.8502C69.9909 64.8502 71.6915 65.1672 72.2578 63.001C72.8175 60.8398 72.7548 58.284 72.7548 58.284C72.7548 58.284 76.1939 56.4563 76.5357 55.5036C76.8775 54.5526 75.6854 53.9004 75.6854 53.9004Z" fill="#CC7A63"/>
<path fill-rule="evenodd" clip-rule="evenodd" d="M141.008 200.662L148.723 207.776C148.723 207.776 151.611 213.727 151.611 214.278C151.611 216.122 133.79 216.38 131.529 215.308C130.625 214.884 127.98 211.59 127.98 211.59L125.708 209.936L124.399 211.656C124.399 211.656 124.399 214.024 123.297 214.207C122.194 214.39 120.844 214.278 120.844 214.278L119.579 208.585L126.489 199.321L141.008 200.662Z" fill="#CC7A63"/>
<path fill-rule="evenodd" clip-rule="evenodd" d="M122.821 204.754C125.535 205.588 130.193 202.188 130.513 201.954C130.318 202.243 128.172 205.419 129.914 205.395C131.742 205.352 132.047 202.352 132.047 202.352C132.047 202.352 133.913 205.865 135.598 205.865C137.385 205.855 138.179 202.495 138.179 202.495C138.179 202.495 139.838 205.517 141.595 204.698C142.706 204.155 142.292 202.454 142.292 202.454C142.292 202.454 147.111 208.025 146.656 203.791C146.315 200.666 143.264 199.555 143.264 199.555C143.264 199.555 164.711 141.507 138.876 130.893L138.848 130.876C137.887 130.472 136.868 130.148 135.783 129.897C135.004 129.704 134.195 129.565 133.345 129.453C116.422 127.275 120.633 169.633 123.501 189.518C124.398 195.581 125.151 199.555 125.151 199.555C125.151 199.555 119.994 203.889 122.821 204.754Z" fill="#5DD39C"/>
<path fill-rule="evenodd" clip-rule="evenodd" d="M123.501 189.519H123.518C133.647 180.686 138.876 130.892 138.876 130.892L138.848 130.877L135.783 129.898C135.004 129.703 134.195 129.564 133.345 129.452C116.422 127.276 120.633 169.633 123.501 189.519Z" fill="#49A97D"/>
<path fill-rule="evenodd" clip-rule="evenodd" d="M30.6039 86.7891C30.6039 86.7891 16.4907 92.713 10.1771 111.185C3.86683 129.652 10.1771 140.678 10.1771 140.678C10.1771 140.678 18.1996 105.948 31.9842 96.2925C31.9842 96.2925 31.157 93.8143 31.9842 92.713L32.8114 91.6134C32.8114 91.6134 29.78 88.5854 30.6039 86.7891Z" fill="#007CFF"/>
<path fill-rule="evenodd" clip-rule="evenodd" d="M30.6039 86.7891C30.6039 86.7891 16.4907 92.713 10.1771 111.185C3.86683 129.652 10.1771 140.678 10.1771 140.678C10.1771 140.678 18.1996 105.948 31.9842 96.2925C31.9842 96.2925 31.157 93.8143 31.9842 92.713L32.8114 91.6134C32.8114 91.6134 29.78 88.5854 30.6039 86.7891Z" fill="#DCE2E2"/>
<path fill-rule="evenodd" clip-rule="evenodd" d="M20.9556 100.017C20.9556 100.017 21.8158 91.0191 13.6002 91.3823C5.37794 91.7505 0.00708008 109.72 0.00708008 109.72C0.00708008 109.72 8.82533 99.4691 11.5809 98.2292C14.3398 96.9843 14.6156 99.6012 14.6156 99.6012C14.6156 99.6012 0.834255 121.519 9.0994 141.232L9.51547 145.758H11.7229L10.4929 141.508C10.4929 141.508 16.2699 117.386 23.8499 108.426C23.8499 108.426 25.6429 107.325 29.366 108.979C33.0825 110.634 38.323 122.206 38.323 122.206L39.7346 120.556C39.7346 120.556 34.8789 104.016 32.8118 101.947C30.743 99.8786 20.9556 100.017 20.9556 100.017Z" fill="white"/>
<mask id="mask1" style="mask-type:alpha" maskUnits="userSpaceOnUse" x="0" y="91" width="40" height="55">
<path fill-rule="evenodd" clip-rule="evenodd" d="M0 91.3667H39.7303V145.758H0V91.3667Z" fill="white"/>
</mask>
<g mask="url(#mask1)">
<path fill-rule="evenodd" clip-rule="evenodd" d="M14.6014 99.601C14.6014 99.601 13.2079 101.82 11.58 105.47C8.07974 113.3 3.45185 127.768 9.08523 141.199C9.09514 141.216 9.09514 141.232 9.09514 141.232L9.51616 145.758H11.7187L10.4886 141.508C10.4886 141.508 16.2607 117.386 23.8423 108.426C23.8423 108.426 24.5506 107.99 25.9903 108.077H26.0002C26.8505 108.134 27.9683 108.37 29.3601 108.984C32.8323 110.514 37.6385 120.731 38.2659 122.067C38.3088 122.164 38.322 122.205 38.322 122.205L39.7303 120.546C39.7303 120.546 34.8647 104.021 32.8058 101.942C30.742 99.8784 20.9464 100.022 20.9464 100.022C20.9464 100.022 21.8049 91.0188 13.5876 91.3771C5.37863 91.7403 -0.000488281 109.72 -0.000488281 109.72C-0.000488281 109.72 0.0639026 109.623 0.220752 109.445C1.65386 107.825 9.08523 99.3517 11.58 98.224C14.3405 96.9791 14.6014 99.601 14.6014 99.601Z" fill="#C5C6C6"/>
</g>
<path fill-rule="evenodd" clip-rule="evenodd" d="M14.6079 99.6012C14.6079 99.6012 0.839833 121.511 9.09012 141.199C9.10663 141.216 9.10663 141.232 9.10663 141.232L9.38236 139.434C9.38236 139.434 9.38236 128.004 11.0268 121.331C12.6861 114.669 19.8665 101.262 19.8665 101.262C19.8665 101.262 19.713 94.9204 15.9882 94.2237C12.3774 93.5534 0.740771 108.743 0.0324707 109.679C0.64501 108.984 8.92172 99.4228 11.5849 98.2242C14.3454 96.9793 14.6079 99.6012 14.6079 99.6012Z" fill="#D1D1D1"/>
<path fill-rule="evenodd" clip-rule="evenodd" d="M20.6848 101.262C20.6848 101.262 24.8075 104.759 25.9962 108.077H26.0061C26.8614 108.133 27.9775 108.369 29.366 108.984C32.8365 110.516 37.6444 120.731 38.2734 122.068C37.7831 120.561 33.3137 107.334 30.3286 105.261C27.152 103.048 20.6848 101.262 20.6848 101.262Z" fill="#A5A5A5"/>
<path fill-rule="evenodd" clip-rule="evenodd" d="M11.5848 98.2241C14.3454 96.9792 14.6079 99.6011 14.6079 99.6011C14.6079 99.6011 13.2177 101.82 11.5848 105.471C14.6524 103.392 17.73 101.638 19.8648 101.262C19.8648 101.262 19.7129 94.9204 15.9881 94.2236C12.5639 93.5946 1.85352 107.298 0.225586 109.445C1.66035 107.827 9.09007 99.3518 11.5848 98.2241Z" fill="#8A8A8A"/>
<path fill-rule="evenodd" clip-rule="evenodd" d="M55.9841 142.261L50.4795 138.077C50.4795 138.077 45.3298 117.449 43.9231 115.241C42.5247 113.039 30.2508 107.877 30.2508 107.877C30.2508 107.877 26.5393 125.899 26.81 132.429C27.0857 138.952 34.5039 143.197 36.3102 144.656C38.1131 146.117 42.2688 144.656 42.2688 144.656L53.7799 149.266L55.9841 142.261Z" fill="#CC7A63"/>
<path fill-rule="evenodd" clip-rule="evenodd" d="M43.1157 140.863C43.8471 139.557 48.5031 139.92 48.5031 139.92C48.5031 139.92 44.0321 135.738 45.5031 134.267C46.5218 133.248 47.7139 134.518 48.4519 135.812C48.0028 134.372 47.6363 132.541 48.442 132.454C49.9114 132.295 55.099 140.851 55.104 140.858C67.6206 148.007 95.8535 163.099 101.256 157.127C108.24 149.41 96.8458 100.523 96.8458 100.523C96.8458 100.523 116.383 68.8176 132.436 85.8201C142.798 96.7962 135.809 157.112 120.368 174.027C107.163 188.5 62.6262 158.843 50.0386 149.973C48.6121 150.193 47.1047 150.402 46.6902 150.368C45.8598 150.3 46.6902 147.573 46.6902 147.573C46.6902 147.573 44.9533 147.678 43.8471 145.841C42.7459 144.001 45.5031 142.9 46.6902 142.715C47.8773 142.532 42.3827 142.169 43.1157 140.863Z" fill="#5DD39C"/>
<path fill-rule="evenodd" clip-rule="evenodd" d="M246.862 190.67C246.862 190.67 258.535 147.873 268.03 134.323C277.519 120.768 262.305 164.953 262.305 164.953C262.305 164.953 275.589 136.781 279.753 137.671C283.92 138.563 266.033 168.982 266.033 168.982C266.033 168.982 279.665 144.63 285.632 148.609C291.604 152.585 268.233 177.617 268.233 177.617C268.233 177.617 289.21 161.895 291.295 166.279C293.377 170.658 270.984 184.617 270.984 184.617C270.984 184.617 292.309 180.306 294.545 187.817C296.778 195.326 273.33 194.2 273.33 194.2C273.33 194.2 284.173 193.713 286.238 201.554C288.305 209.393 257.772 206.535 246.862 190.67Z" fill="#1A2E35"/>
<path fill-rule="evenodd" clip-rule="evenodd" d="M246.862 190.67C246.862 190.67 258.535 147.873 268.03 134.323C277.519 120.768 262.305 164.953 262.305 164.953C262.305 164.953 275.589 136.781 279.753 137.671C283.92 138.563 266.033 168.982 266.033 168.982C266.033 168.982 279.665 144.63 285.632 148.609C291.604 152.585 268.233 177.617 268.233 177.617C268.233 177.617 289.21 161.895 291.295 166.279C293.377 170.658 270.984 184.617 270.984 184.617C270.984 184.617 292.309 180.306 294.545 187.817C296.778 195.326 273.33 194.2 273.33 194.2C273.33 194.2 284.173 193.713 286.238 201.554C288.305 209.393 257.772 206.535 246.862 190.67Z" fill="#768285"/>
<path fill-rule="evenodd" clip-rule="evenodd" d="M240.903 203.048C240.903 203.048 256.73 172.578 253.525 167.235C250.327 161.895 243.553 179.147 243.553 179.147C243.553 179.147 255.771 140.1 251.361 135.807C246.951 131.516 238.866 169.429 238.866 169.429C238.866 169.429 243.152 124.998 238.866 122.637C234.576 120.271 232.504 162.841 232.504 162.841C232.504 162.841 229.583 117.796 224.204 118.468C218.827 119.145 224.204 158.499 224.204 158.499C224.204 158.499 212.176 128.551 206.781 129.754C201.389 130.958 215.452 160.758 215.452 160.758C215.452 160.758 201.199 142.766 197.078 146.988C192.95 151.208 209.824 170.909 209.824 170.909C209.824 170.909 195.356 161.895 191.623 166.396C187.885 170.892 206.781 180.592 206.781 180.592C206.781 180.592 191.367 184.597 192.438 188.431C193.513 192.268 206.781 191.75 206.781 191.75C206.781 191.75 212.53 219.046 240.903 203.048Z" fill="#1A2E35"/>
<path fill-rule="evenodd" clip-rule="evenodd" d="M240.903 203.048C240.903 203.048 256.73 172.578 253.525 167.235C250.327 161.895 243.553 179.147 243.553 179.147C243.553 179.147 255.771 140.1 251.361 135.807C246.951 131.516 238.866 169.429 238.866 169.429C238.866 169.429 243.152 124.998 238.866 122.637C234.576 120.271 232.504 162.841 232.504 162.841C232.504 162.841 229.583 117.796 224.204 118.468C218.827 119.145 224.204 158.499 224.204 158.499C224.204 158.499 212.176 128.551 206.781 129.754C201.389 130.958 215.452 160.758 215.452 160.758C215.452 160.758 201.199 142.766 197.078 146.988C192.95 151.208 209.824 170.909 209.824 170.909C209.824 170.909 195.356 161.895 191.623 166.396C187.885 170.892 206.781 180.592 206.781 180.592C206.781 180.592 191.367 184.597 192.438 188.431C193.513 192.268 206.781 191.75 206.781 191.75C206.781 191.75 212.53 219.046 240.903 203.048Z" fill="#8C979A"/>
<path fill-rule="evenodd" clip-rule="evenodd" d="M245.074 212.795C245.041 212.795 245.007 212.788 244.972 212.783C244.662 212.727 244.458 212.43 244.511 212.124C244.6 211.631 253.509 163.13 274.77 142.219C274.993 141.999 275.355 142.004 275.574 142.231C275.792 142.457 275.792 142.813 275.569 143.035C254.566 163.688 245.723 211.837 245.636 212.323C245.584 212.6 245.343 212.795 245.074 212.795Z" fill="#1A2E35"/>
<path fill-rule="evenodd" clip-rule="evenodd" d="M277.981 142.628C277.981 144.18 276.721 145.44 275.169 145.44C273.614 145.44 272.359 144.18 272.359 142.628C272.359 141.073 273.614 139.818 275.169 139.818C276.721 139.818 277.981 141.073 277.981 142.628Z" fill="#1A2E35"/>
<path fill-rule="evenodd" clip-rule="evenodd" d="M268.952 165.28C268.952 166.608 267.883 167.676 266.556 167.676C265.228 167.676 264.154 166.608 264.154 165.28C264.154 163.953 265.228 162.878 266.556 162.878C267.883 162.878 268.952 163.953 268.952 165.28Z" fill="#1A2E35"/>
<path fill-rule="evenodd" clip-rule="evenodd" d="M258.302 158.31C258.302 159.637 257.227 160.712 255.903 160.712C254.577 160.712 253.502 159.637 253.502 158.31C253.502 156.984 254.577 155.908 255.903 155.908C257.227 155.908 258.302 156.984 258.302 158.31Z" fill="#1A2E35"/>
<path fill-rule="evenodd" clip-rule="evenodd" d="M265.756 173.985C265.756 175.313 264.681 176.387 263.355 176.387C262.028 176.387 260.953 175.313 260.953 173.985C260.953 172.659 262.028 171.584 263.355 171.584C264.681 171.584 265.756 172.659 265.756 173.985Z" fill="#1A2E35"/>
<path fill-rule="evenodd" clip-rule="evenodd" d="M254.787 170.545C254.787 171.872 253.712 172.947 252.385 172.947C251.059 172.947 249.986 171.872 249.986 170.545C249.986 169.217 251.059 168.143 252.385 168.143C253.712 168.143 254.787 169.217 254.787 170.545Z" fill="#1A2E35"/>
<path fill-rule="evenodd" clip-rule="evenodd" d="M266.74 145.44C266.74 146.768 265.665 147.842 264.339 147.842C263.011 147.842 261.94 146.768 261.94 145.44C261.94 144.114 263.011 143.04 264.339 143.04C265.665 143.04 266.74 144.114 266.74 145.44Z" fill="#1A2E35"/>
<path fill-rule="evenodd" clip-rule="evenodd" d="M263.769 157.783V145.44C263.769 145.124 264.025 144.874 264.339 144.874C264.654 144.874 264.91 145.124 264.91 145.44V156.329L275.029 153.819C275.333 153.748 275.644 153.931 275.721 154.24C275.799 154.54 275.609 154.852 275.304 154.93L263.769 157.783Z" fill="#1A2E35"/>
<path fill-rule="evenodd" clip-rule="evenodd" d="M258.632 168.112L255.362 158.494C255.261 158.197 255.416 157.875 255.718 157.771C256.015 157.675 256.337 157.829 256.441 158.126L259.38 166.774L266.43 165.193C266.737 165.131 267.041 165.321 267.112 165.628C267.18 165.937 266.987 166.238 266.678 166.309L258.632 168.112Z" fill="#1A2E35"/>
<path fill-rule="evenodd" clip-rule="evenodd" d="M254.542 178.174L251.849 170.74C251.744 170.447 251.895 170.119 252.191 170.013C252.488 169.904 252.815 170.053 252.924 170.35L255.212 176.675L263.139 173.459C263.431 173.335 263.765 173.479 263.882 173.771C264.001 174.063 263.862 174.395 263.57 174.514L254.542 178.174Z" fill="#1A2E35"/>
<path fill-rule="evenodd" clip-rule="evenodd" d="M216.363 206.194C216.188 206.194 216.01 206.109 215.901 205.956C204.651 190.429 190.747 173.483 172.936 165.547C172.648 165.419 172.518 165.081 172.648 164.789C172.777 164.501 173.112 164.374 173.401 164.501C191.459 172.552 205.486 189.637 216.824 205.286C217.009 205.542 216.951 205.9 216.697 206.086C216.594 206.157 216.477 206.194 216.363 206.194Z" fill="#1A2E35"/>
<path fill-rule="evenodd" clip-rule="evenodd" d="M170.534 166.007C171.08 167.462 172.7 168.198 174.154 167.657C175.609 167.114 176.347 165.494 175.804 164.036C175.261 162.581 173.638 161.845 172.183 162.393C170.728 162.935 169.992 164.553 170.534 166.007Z" fill="#1A2E35"/>
<path fill-rule="evenodd" clip-rule="evenodd" d="M172.428 177.289C172.971 178.744 174.594 179.48 176.049 178.938C177.503 178.395 178.241 176.772 177.698 175.318C177.15 173.863 175.532 173.127 174.077 173.67C172.623 174.216 171.887 175.834 172.428 177.289Z" fill="#1A2E35"/>
<path fill-rule="evenodd" clip-rule="evenodd" d="M186.926 184.059C187.392 185.298 188.776 185.928 190.017 185.463C191.259 185 191.89 183.618 191.424 182.375C190.96 181.135 189.575 180.506 188.336 180.967C187.092 181.431 186.461 182.814 186.926 184.059Z" fill="#1A2E35"/>
<path fill-rule="evenodd" clip-rule="evenodd" d="M194.459 173.801C194.927 175.041 196.308 175.67 197.553 175.205C198.793 174.742 199.422 173.355 198.957 172.116C198.494 170.872 197.109 170.242 195.869 170.709C194.629 171.174 193.999 172.556 194.459 173.801Z" fill="#1A2E35"/>
<path fill-rule="evenodd" clip-rule="evenodd" d="M192.974 191.091C193.44 192.331 194.823 192.965 196.065 192.498C197.307 192.032 197.937 190.65 197.472 189.405C197.006 188.167 195.624 187.536 194.384 188.003C193.139 188.469 192.512 189.851 192.974 191.091Z" fill="#1A2E35"/>
<path fill-rule="evenodd" clip-rule="evenodd" d="M202.044 184.024C202.508 185.269 203.893 185.898 205.133 185.432C206.371 184.965 207.003 183.581 206.541 182.343C206.074 181.1 204.692 180.471 203.449 180.935C202.209 181.402 201.578 182.784 202.044 184.024Z" fill="#1A2E35"/>
<path fill-rule="evenodd" clip-rule="evenodd" d="M182.049 164.701C182.511 165.946 183.895 166.575 185.136 166.111C186.385 165.643 187.009 164.261 186.548 163.021C186.079 161.777 184.694 161.148 183.454 161.614C182.214 162.08 181.587 163.461 182.049 164.701Z" fill="#1A2E35"/>
<path fill-rule="evenodd" clip-rule="evenodd" d="M177.286 176.593C176.999 176.593 176.755 176.378 176.72 176.086C176.685 175.774 176.908 175.491 177.223 175.457L187.577 174.258L183.763 164.061C183.654 163.764 183.803 163.437 184.095 163.33C184.392 163.216 184.719 163.369 184.831 163.662L189.159 175.221L177.352 176.588C177.329 176.593 177.311 176.593 177.286 176.593Z" fill="#1A2E35"/>
<path fill-rule="evenodd" clip-rule="evenodd" d="M189.338 184.233C189.063 184.233 188.817 184.024 188.777 183.741C188.736 183.429 188.95 183.144 189.262 183.097L196.416 182.103L196.139 172.978C196.129 172.659 196.382 172.399 196.692 172.389C196.984 172.399 197.272 172.625 197.282 172.94L197.589 183.092L189.421 184.223C189.395 184.228 189.368 184.233 189.338 184.233Z" fill="#1A2E35"/>
<path fill-rule="evenodd" clip-rule="evenodd" d="M204.948 191.086L195.208 190.818C194.894 190.808 194.645 190.548 194.655 190.234C194.662 189.919 194.936 189.702 195.238 189.676L203.792 189.912L203.721 183.189C203.719 182.875 203.97 182.614 204.282 182.609H204.294C204.604 182.609 204.859 182.865 204.86 183.179L204.948 191.086Z" fill="#1A2E35"/>
<path fill-rule="evenodd" clip-rule="evenodd" d="M170.493 212.451H298.72C298.72 212.451 266.294 201.867 265.48 198.875C264.666 195.878 264.697 193.795 260.743 191.183C256.79 188.571 251.373 186.967 249.866 184.111C248.353 181.256 243.706 176.645 242.091 175.291C240.479 173.941 221.24 183.624 221.015 183.844C220.792 184.07 215.441 194.562 213.615 196.908C211.791 199.255 199.21 196.39 196.2 198.875C193.195 201.353 183.102 207.771 183.102 207.771C183.102 207.771 178.139 207.084 170.493 212.451Z" fill="#E5EAEA"/>
</svg>
