<svg width="464" height="345" viewBox="0 0 464 345" fill="none" xmlns="http://www.w3.org/2000/svg">
<path fill-rule="evenodd" clip-rule="evenodd" d="M376.834 41.0763C376.834 41.0763 390.346 35.6812 395.852 45.8349C395.852 45.8349 380.924 49.4157 376.834 41.0763Z" fill="#464747"/>
<mask id="mask0" style="mask-type:alpha" maskUnits="userSpaceOnUse" x="57" y="0" width="389" height="86">
<path fill-rule="evenodd" clip-rule="evenodd" d="M57.0392 0.398193H445.746V85.9944H57.0392V0.398193Z" fill="white"/>
</mask>
<g mask="url(#mask0)">
<path fill-rule="evenodd" clip-rule="evenodd" d="M445.746 2.57805C445.746 2.57805 363.736 58.2008 291.546 78.7151C290.861 78.9061 290.177 79.0971 289.477 79.2881C278.814 82.2323 268.358 84.3809 258.459 85.4472C236.878 87.7548 212.019 82.5506 187.383 73.8452C186.778 73.6383 186.157 73.4155 185.552 73.1926C122.513 50.4502 61.4795 5.41091 61.4795 5.41091C61.4795 5.41091 58.1851 2.48256 57.0392 0.397705H64.6624C71.0443 3.32605 78.6517 8.40292 78.6517 8.40292C78.6517 8.40292 180.316 69.7868 223.764 77.2987C284.177 87.723 397.205 31.2727 431.613 0.397705H444.616C444.918 0.906983 445.236 1.46401 445.523 2.08469C445.602 2.24384 445.682 2.40299 445.746 2.57805Z" fill="#464747"/>
</g>
<path fill-rule="evenodd" clip-rule="evenodd" d="M187.112 73.1608C185.361 69.0389 181.462 85.1289 181.462 85.1289C181.462 85.1289 191.536 83.5692 187.112 73.1608Z" fill="#464747"/>
<path fill-rule="evenodd" clip-rule="evenodd" d="M175.876 59.7286C175.876 59.7286 181.032 51.7871 171.468 45.3574C171.468 45.3574 166.82 55.718 175.876 59.7286Z" fill="#464747"/>
<path fill-rule="evenodd" clip-rule="evenodd" d="M120.174 31.5431C120.174 31.5431 124.805 26.3867 124.471 17.3311C124.471 17.3311 113.887 17.5539 120.174 31.5431Z" fill="#464747"/>
<path fill-rule="evenodd" clip-rule="evenodd" d="M289.365 78.6992C289.365 78.6992 302.623 77.3146 305.089 91.1924C305.089 91.1924 291.164 90.0943 289.365 78.6992Z" fill="#464747"/>
<path fill-rule="evenodd" clip-rule="evenodd" d="M360.394 43.4635C360.394 43.4635 356.145 25.7183 361.969 18.3179C361.969 18.3179 373.524 33.6599 360.394 43.4635Z" fill="#464747"/>
<path fill-rule="evenodd" clip-rule="evenodd" d="M187.112 73.1606C185.361 69.0386 181.462 85.1286 181.462 85.1286C181.462 85.1286 191.536 83.569 187.112 73.1606Z" fill="#464747"/>
<path fill-rule="evenodd" clip-rule="evenodd" d="M175.876 59.7284C175.876 59.7284 181.032 51.7868 171.468 45.3572C171.468 45.3572 166.82 55.7178 175.876 59.7284Z" fill="#464747"/>
<path fill-rule="evenodd" clip-rule="evenodd" d="M120.174 31.5431C120.174 31.5431 124.805 26.3867 124.471 17.3311C124.471 17.3311 113.887 17.5539 120.174 31.5431Z" fill="#464747"/>
<path fill-rule="evenodd" clip-rule="evenodd" d="M289.365 78.699C289.365 78.699 302.623 77.3144 305.089 91.1922C305.089 91.1922 291.164 90.0941 289.365 78.699Z" fill="#464747"/>
<path fill-rule="evenodd" clip-rule="evenodd" d="M360.394 43.4635C360.394 43.4635 356.145 25.7183 361.969 18.3179C361.969 18.3179 373.524 33.6599 360.394 43.4635Z" fill="#464747"/>
<mask id="mask1" style="mask-type:alpha" maskUnits="userSpaceOnUse" x="5" y="0" width="223" height="70">
<path fill-rule="evenodd" clip-rule="evenodd" d="M5.98401 0.398193H227.345V69.9191H5.98401V0.398193Z" fill="white"/>
</mask>
<g mask="url(#mask1)">
<path fill-rule="evenodd" clip-rule="evenodd" d="M227.345 0.397705C205.048 22.6627 153.882 67.1131 95.0122 69.8028C94.5507 69.8187 94.0891 69.8346 93.6276 69.8505H93.6117C84.5402 70.1529 75.2936 69.4685 65.9356 67.5428C38.8165 61.9567 9.97866 8.11645 5.98401 0.397705H13.9415C18.0794 7.78224 46.6944 57.7233 68.8958 61.6066C110.402 68.8319 148.12 53.474 176.831 34.7103C177.706 34.1374 178.582 33.5644 179.441 32.9756C196.056 21.7715 209.457 9.61246 218.576 0.397705H227.345Z" fill="#464747"/>
</g>
<path fill-rule="evenodd" clip-rule="evenodd" d="M94.2801 68.6567C94.2801 68.6567 100.391 76.9166 96.4286 84.5558C96.4286 84.5558 88.7736 77.6646 94.2801 68.6567Z" fill="#464747"/>
<path fill-rule="evenodd" clip-rule="evenodd" d="M26.8485 36.3971C26.8485 36.3971 17.8406 29.8879 9.93091 36.3971C9.93091 36.3971 17.3632 45.0071 26.8485 36.3971Z" fill="#464747"/>
<path fill-rule="evenodd" clip-rule="evenodd" d="M177.547 35.8085C177.547 35.8085 185.266 26.3869 179.982 19.8936C179.982 19.8936 171.483 27.5805 177.547 35.8085Z" fill="#464747"/>
<path fill-rule="evenodd" clip-rule="evenodd" d="M94.2801 68.657C94.2801 68.657 100.391 76.9168 96.4286 84.556C96.4286 84.556 88.7736 77.6648 94.2801 68.657Z" fill="#464747"/>
<path fill-rule="evenodd" clip-rule="evenodd" d="M26.8485 36.3974C26.8485 36.3974 17.8406 29.8882 9.93091 36.3974C9.93091 36.3974 17.3632 45.0074 26.8485 36.3974Z" fill="#464747"/>
<path fill-rule="evenodd" clip-rule="evenodd" d="M177.547 35.8085C177.547 35.8085 185.266 26.3869 179.982 19.8936C179.982 19.8936 171.483 27.5805 177.547 35.8085Z" fill="#464747"/>
<path fill-rule="evenodd" clip-rule="evenodd" d="M60.2222 80.1315L57.819 68.4022C57.819 68.4022 59.8561 58.6464 60.2222 58.8851C60.5723 59.1397 60.2222 53.3467 60.2222 53.3467C60.2222 53.3467 44.8802 41.506 42.9863 41.9198C41.0924 42.3495 38.2118 54.5881 40.8537 61.0177C43.4797 67.4473 48.0154 74.625 48.0154 74.625L52.8058 83.4737L60.2222 80.1315Z" fill="#CC7A63"/>
<path fill-rule="evenodd" clip-rule="evenodd" d="M226.31 105.022L231.881 97.3514C231.403 94.2321 229.541 93.7547 230.241 91.1287C230.942 88.4868 228.316 77.7283 229.271 76.5347C230.226 75.3411 252.204 74.1475 252.204 74.1475C252.204 74.1475 251.743 88.264 250.788 90.6513C249.833 93.0385 242.416 98.8634 242.416 98.8634L229.987 115.033L226.31 105.022Z" fill="#CC7A63"/>
<path fill-rule="evenodd" clip-rule="evenodd" d="M25.2729 268.501C30.8432 282.538 43.5751 289.111 56.7527 289.811C60.3017 290.002 63.8667 289.779 67.3361 289.127C68.9117 288.856 70.4714 288.49 71.9992 288.044C93.2934 281.853 110.593 262.803 119.426 235.796C120.11 233.711 118.98 231.483 116.895 230.798C114.81 230.114 112.566 231.244 111.898 233.329C108.094 244.915 96.4127 272.686 69.787 280.421C69.5801 280.485 69.4051 280.532 69.1982 280.58C55.384 284.384 38.5619 280.469 32.6575 265.572C25.83 248.352 37.1137 238.772 50.1639 227.679C55.2249 223.398 60.429 218.958 64.4555 213.992C77.0761 198.443 77.7127 172.375 65.8401 157.08C60.5405 150.253 50.0684 145.383 41.1242 149.807C39.1667 150.778 38.355 153.149 39.3258 155.123C40.2966 157.08 42.668 157.892 44.6414 156.921C49.6387 154.454 56.1638 157.526 59.5696 161.934C69.1823 174.316 68.5775 196.311 58.2805 208.995C54.7315 213.387 50.0207 217.382 45.0234 221.631C31.5753 233.042 16.3606 245.997 25.2729 268.501Z" fill="#5DD39C"/>
<path fill-rule="evenodd" clip-rule="evenodd" d="M67.3361 289.126C68.9116 288.856 70.4713 288.49 71.9991 288.044C93.2933 281.853 110.593 262.803 119.426 235.795C120.11 233.711 118.98 231.483 116.895 230.798C114.81 230.114 112.566 231.244 111.898 233.329C108.094 244.915 96.4127 272.686 69.787 280.421C69.5801 280.485 69.405 280.532 69.1981 280.58C68.3705 283.493 67.718 286.341 67.3361 289.126Z" fill="#49A97D"/>
<mask id="mask2" style="mask-type:alpha" maskUnits="userSpaceOnUse" x="101" y="308" width="21" height="37">
<path fill-rule="evenodd" clip-rule="evenodd" d="M101.251 308.829H121.606V344.401H101.251V308.829Z" fill="white"/>
</mask>
<g mask="url(#mask2)">
<path fill-rule="evenodd" clip-rule="evenodd" d="M117.389 308.829C117.993 309.72 121.606 324.314 121.606 324.314L121.145 332.67C121.145 332.67 119.282 331.492 118.725 330.824C118.184 330.155 117.293 326.654 117.293 326.654L117.357 337.619L118.073 343.046C118.073 343.046 116.561 344.463 115.479 344.399C114.413 344.351 111.978 341.646 111.978 341.646L102.874 339.004L101.251 312.044L117.389 308.829Z" fill="#CC7A63"/>
</g>
<path fill-rule="evenodd" clip-rule="evenodd" d="M134.243 287.376C134.243 287.376 125.919 290.145 124.105 291.769C122.306 293.392 123.118 310.198 122.975 312.776C122.847 315.354 127.256 318.378 127.256 318.378L127.335 316.659L127.638 311.089L129.5 318.506L130.025 325.62L133.797 327.545C133.797 327.545 135.5 323.773 136.168 323.376C136.837 322.978 139.16 315.8 139.16 315.8L133.749 296.591L138.285 291.88L134.243 287.376Z" fill="#CC7A63"/>
<path fill-rule="evenodd" clip-rule="evenodd" d="M46.7104 81.3569C46.8695 80.6089 48.7952 80.6089 48.7952 80.6089C48.7952 80.6089 46.2647 79.7176 46.9491 78.7787C47.6493 77.8556 51.5644 79.0333 51.5644 79.0333C51.5644 79.0333 48.9385 77.8238 50.0684 76.9166C51.1825 76.0095 54.2063 77.6965 54.2063 77.6965C54.2063 77.6965 52.949 75.1341 53.6334 74.4339C54.3177 73.7336 55.8774 76.7893 55.8774 76.7893C55.8774 76.7893 55.1135 72.9856 56.1161 72.2854C57.1187 71.5851 59.3946 75.2615 59.3946 75.2615C59.3946 75.2615 59.1558 71.601 60.1267 71.5374C61.0975 71.4896 61.4158 78.0625 61.4158 78.0943C78.8585 114.667 117.802 156.73 117.802 156.73C117.802 156.73 127.129 167.68 146.258 163.542C162.444 160.04 211.541 117.929 226.31 105.022C226.31 105.022 229.812 98.4814 230.798 98.0994C231.785 97.7174 231.292 100.916 231.292 100.916C231.292 100.916 234.172 98.0676 234.666 99.484C235.159 100.916 233.233 104.784 233.233 104.784C233.233 104.784 235.111 103.701 235.732 104.386C236.337 105.054 233.679 106.63 233.679 106.63C233.679 106.63 236.337 106.996 236.273 108.174C236.21 109.351 234.157 108.922 234.157 108.922C234.157 108.922 235.557 109.431 235.191 110.481C235.048 110.879 234.411 110.943 233.695 110.863C224.305 127.94 208.836 145.574 193.955 160.359C195.356 159.754 196.263 159.706 196.12 160.295C195.77 161.791 190.486 164.481 190.486 164.481C190.486 164.481 192.73 164.64 192.141 165.579C191.759 166.184 189.117 166.581 187.335 166.788C169.033 184.199 153.229 196.311 153.229 196.311L144.078 231.307C144.078 231.307 146.481 237.498 145.972 238.485C145.478 239.456 143.807 236.496 143.807 236.496L147.786 249.562C150.953 249.005 156.157 248.289 161.171 248.623C161.171 248.623 167.346 245.933 169.144 246.888C170.958 247.843 166.47 248.607 166.47 248.607C166.47 248.607 173.743 249.339 173.807 250.962C173.807 251.249 172.789 251.44 171.133 251.583C174.03 253.572 176.067 256.58 176.91 260.018C176.91 260.018 180.078 270.41 179.266 272.082C178.454 273.753 177.022 270.092 177.022 270.092C177.022 270.092 176.656 277.97 173.791 277.954C173.075 277.954 172.566 276.967 172.2 275.503C172.009 275.71 171.802 275.917 171.595 276.108C163.637 283.731 141.85 293.694 135.5 296.527C134.847 298.15 133.908 300.092 133.065 299.71C131.664 299.057 133.319 295.126 133.319 295.126C133.319 295.126 131.362 296.893 129.818 296.225C128.274 295.572 129.723 292.5 129.723 292.5C129.723 292.5 128.816 293.599 128.147 292.134C127.479 290.654 129.93 288.792 129.93 288.792C129.93 288.792 128.068 288.681 128.434 287.264C128.672 286.357 130.853 286.262 132.349 286.325L142.502 275.981C142.502 275.981 139.288 277.254 127.574 279.88C127.574 279.88 122.131 324.633 108.333 328.038C92.8 331.89 93.1024 287.583 96.731 266.05C95.1554 259.875 100.805 247.954 100.805 247.954C100.805 247.954 100.137 248.352 99.7389 246.315C99.3411 244.294 102.588 237.419 102.588 237.419C102.588 237.419 100.726 239.933 100.232 238.469C99.9458 237.61 100.917 235.477 101.76 233.886L90.7629 186.364C90.6833 187.048 90.5083 187.43 90.2218 187.334C88.5348 186.825 88.7736 177.754 88.7736 177.754C88.7736 177.754 88.0892 179.059 87.4049 178.438C86.7205 177.817 86.5295 168.014 86.5295 168.014L72.3971 135.77C72.3971 135.77 68.1319 134.131 68.2115 132.842C68.2751 131.553 70.3759 132.969 70.3759 132.969C70.3759 132.969 65.7128 126.667 68.8003 127.558L49.018 82.455C47.7608 82.089 46.6467 81.6752 46.7104 81.3569Z" fill="#5DD39C"/>
<path fill-rule="evenodd" clip-rule="evenodd" d="M117.118 181.685C117.85 183.945 119.824 183.117 119.824 183.117C119.824 183.117 124.837 202.167 128.497 206.019C132.158 209.854 132.778 206.242 132.778 206.242C132.778 206.242 142.518 212.671 148.486 214.438L153.229 196.311C153.229 196.311 162.73 189.006 175.558 177.611C174.778 177.945 162.348 183.308 158.385 182.894C158.385 182.894 163.892 168.189 155.553 159.579C151.876 161.632 148.693 163.033 146.274 163.542C132.11 166.597 123.341 161.409 119.712 158.513C119.569 159.054 119.06 161.632 120.842 164.115C120.842 164.115 116.911 165.404 116.816 167.123C116.72 168.841 118.614 169.796 118.614 169.796C118.614 169.796 116.37 179.425 117.118 181.685Z" fill="#49A97D"/>
<path fill-rule="evenodd" clip-rule="evenodd" d="M127.574 279.88C138.221 277.493 141.85 276.235 142.439 276.029C142.439 276.013 142.471 275.997 142.471 275.997H142.502L142.518 275.981L148.932 267.737C148.932 267.737 138.731 273.212 132.89 273.116L127.574 279.88Z" fill="#49A97D"/>
<path fill-rule="evenodd" clip-rule="evenodd" d="M152.306 160.152C142.805 151.908 130.073 157.796 126.396 162.189C122.72 166.582 124.63 191.727 131.903 198.38C135.723 201.865 142.12 205.987 148.598 201.817C152.274 199.478 155.409 194.846 154.534 189.674C153.675 184.502 162.157 168.714 152.306 160.152Z" fill="#CC7A63"/>
<path fill-rule="evenodd" clip-rule="evenodd" d="M140.433 184.04C140.338 184.741 140.704 185.345 141.181 185.377C141.643 185.425 142.057 184.868 142.105 184.168C142.168 183.451 141.834 182.847 141.372 182.815C140.911 182.783 140.497 183.324 140.433 184.04Z" fill="#1A2E35"/>
<path fill-rule="evenodd" clip-rule="evenodd" d="M151.685 184.804C151.59 185.504 151.972 186.109 152.433 186.141C152.895 186.189 153.309 185.632 153.372 184.931C153.42 184.215 153.07 183.61 152.624 183.579C152.163 183.547 151.733 184.136 151.685 184.804Z" fill="#1A2E35"/>
<path d="M150.842 192.396C150.842 192.396 150.683 193.589 150.539 193.971C150.094 195.149 148.232 197.998 145.829 195.785C144.157 194.242 144.778 192.793 144.778 192.793" stroke="#1A2E35" stroke-width="0.631" stroke-linecap="round"/>
<path d="M148.582 196.374C147.245 197.568 149.76 198.586 150.587 197.329" stroke="#1A2E35" stroke-width="0.631" stroke-linecap="round"/>
<path fill-rule="evenodd" clip-rule="evenodd" d="M152.035 191.282L149.791 191.17C149.553 191.154 149.394 191.409 149.521 191.616L150.571 193.239C150.667 193.414 150.921 193.43 151.033 193.271L152.258 191.759C152.401 191.568 152.274 191.297 152.035 191.282Z" fill="#B84D3C"/>
<path fill-rule="evenodd" clip-rule="evenodd" d="M156.333 180.555C156.333 180.555 154.996 178.231 153.722 178.343C152.879 178.422 149.935 179.711 149.362 179.632C148.439 179.473 147.245 177.69 145.081 177.308C142.9 176.942 136.725 178.565 136.041 179.457C135.341 180.364 134.64 181.51 135.357 183.945C135.548 184.613 138.603 189.785 138.603 189.785C138.603 189.785 138.253 198.698 138.906 200.56C139.558 202.422 142.168 203.552 146.099 203.043C147.102 202.915 151.128 199.685 152.083 198.045C153.181 196.167 153.643 191.552 153.531 189.945C153.531 189.945 156.237 189.992 155.951 194.162C155.664 198.332 154.104 197.6 154.104 197.6C154.104 197.6 150.508 204.634 148.916 203.918C147.325 203.186 147.229 206.512 145.494 206.862C143.76 207.196 141.595 203.918 141.006 204.857C140.418 205.796 140.975 209.584 139.956 208.676C138.937 207.753 138.444 206.767 137.887 207.053C137.346 207.356 135.993 207.706 135.484 206.496C134.975 205.287 134.322 203.536 132.158 203.743C129.993 203.95 128.306 201.387 128.768 200.767C129.229 200.146 128.386 196.008 127.526 195.96C126.667 195.913 125.696 193.876 125.951 193.271C126.19 192.666 125.983 190.74 124.741 189.801C123.5 188.878 123.516 186.284 123.771 185.663C124.025 185.027 123.373 181.175 122.099 178.725C120.842 176.258 122.513 175.064 122.991 174.125C123.484 173.186 121.813 171.26 122.004 170.194C122.195 169.128 123.755 169.971 123.468 167.377C123.182 164.783 121.59 162.332 123.007 161.966C124.423 161.616 120.397 160.327 125.251 158.003C130.121 155.696 136.025 155.712 136.025 155.712C136.025 155.712 133.129 152.974 138.317 153.674C143.505 154.359 146.768 155.823 146.768 155.823C146.768 155.823 146.433 154.518 148.28 155.043C150.11 155.584 153.213 157.94 153.85 160.231C153.85 160.231 155.282 159.292 156.746 162.062C158.21 164.831 158.624 171.292 158.624 171.292C158.624 171.292 159.77 179.584 156.333 180.555Z" fill="#5DD39C"/>
<path fill-rule="evenodd" clip-rule="evenodd" d="M129.404 170.815C129.404 170.815 125.855 164.815 122.847 166.916C119.84 169 116.991 177.961 120.206 180.205C123.405 182.449 124.853 185.552 126.731 184.613C126.731 184.613 125.203 183.26 125.871 182.544C126.556 181.828 127.654 181.462 127.654 181.462C127.654 181.462 126.301 180.793 127.033 178.979C127.781 177.165 129.166 175.414 129.166 175.414C129.166 175.414 127.717 172.327 127.972 171.483C128.243 170.64 129.404 170.815 129.404 170.815Z" fill="#CC7A63"/>
</svg>
