<?xml version="1.0" encoding="UTF-8"?>
<svg width="313px" height="233px" viewBox="0 0 313 233" version="1.1" xmlns="http://www.w3.org/2000/svg" xmlns:xlink="http://www.w3.org/1999/xlink">
    <title>Group 84</title>
    <defs>
        <polygon id="path-1" points="0 0 262.298314 0 262.298314 57.7601088 0 57.7601088"></polygon>
        <polygon id="path-3" points="0 0 149.373864 0 149.373864 46.9125757 0 46.9125757"></polygon>
        <polygon id="path-5" points="0 0.268645281 163.796835 0.268645281 163.796835 0.80529148 0 0.80529148"></polygon>
        <polygon id="path-7" points="7.63077964e-15 0.268645281 281.102947 0.268645281 281.102947 0.80529148 7.63077964e-15 0.80529148"></polygon>
        <polygon id="path-9" points="0 1.52615593e-14 13.7356512 1.52615593e-14 13.7356512 24.0038827 0 24.0038827"></polygon>
    </defs>
    <g id="Homepage" stroke="none" stroke-width="1" fill="none" fill-rule="evenodd">
        <g transform="translate(-760.000000, -720.000000)" id="Group-2">
            <g id="Group-8" transform="translate(0.000000, 719.702446)">
                <g id="Group-84" transform="translate(760.000000, 0.297554)">
                    <path d="M254.286746,27.7181467 C254.286746,27.7181467 263.404469,24.0775011 267.12029,30.9292176 C267.12029,30.9292176 257.046764,33.3455753 254.286746,27.7181467" id="Fill-1" fill="#464747"></path>
                    <g id="Group-5" transform="translate(38.489893, 0.268645)">
                        <mask id="mask-2" fill="white">
                            <use xlink:href="#path-1"></use>
                        </mask>
                        <g id="Clip-4"></g>
                        <path d="M262.298314,1.47097118 C262.298314,1.47097118 206.958353,39.005061 158.244582,52.8481058 C157.782789,52.9769782 157.320996,53.1058506 156.848464,53.234723 C149.653088,55.221506 142.597323,56.6713207 135.917436,57.3908583 C121.354854,58.9480666 104.579962,55.4362934 87.9554207,49.5618593 C87.5473247,49.4222475 87.1284894,49.2718964 86.7203934,49.1215452 C44.1817583,33.7749889 2.99628356,3.38257861 2.99628356,3.38257861 C2.99628356,3.38257861 0.773234468,1.40653498 0,-0.000322181028 L5.14415708,-0.000322181028 C9.45064349,1.97572146 14.5840612,5.40157972 14.5840612,5.40157972 C14.5840612,5.40157972 83.1871415,46.8233206 112.505615,51.8923021 C153.272254,58.9265879 229.543243,20.834051 252.761756,-0.000322181028 L261.535819,-0.000322181028 C261.739867,0.343337582 261.954655,0.719215449 262.147963,1.13805079 C262.20166,1.24544446 262.255357,1.35283814 262.298314,1.47097118" id="Fill-3" fill="#464747" mask="url(#mask-2)"></path>
                    </g>
                    <path d="M126.262745,49.3687118 C125.081414,46.5872156 122.450269,57.4447162 122.450269,57.4447162 C122.450269,57.4447162 129.248289,56.3922582 126.262745,49.3687118" id="Fill-6" fill="#464747"></path>
                    <path d="M118.680751,40.3046855 C118.680751,40.3046855 122.160307,34.9457411 115.705947,30.6070366 C115.705947,30.6070366 112.570051,37.5983649 118.680751,40.3046855" id="Fill-8" fill="#464747"></path>
                    <path d="M81.0929648,21.2852655 C81.0929648,21.2852655 84.2181208,17.8057104 83.992594,11.6950102 C83.992594,11.6950102 76.8509146,11.8453614 81.0929648,21.2852655" id="Fill-10" fill="#464747"></path>
                    <path d="M195.263182,53.1060117 C195.263182,53.1060117 204.209075,52.1716867 205.873677,61.5364153 C205.873677,61.5364153 196.47673,60.7953989 195.263182,53.1060117" id="Fill-12" fill="#464747"></path>
                    <path d="M243.192979,29.3290518 C243.192979,29.3290518 240.325568,17.354657 244.256177,12.360851 C244.256177,12.360851 252.052958,22.7136014 243.192979,29.3290518" id="Fill-14" fill="#464747"></path>
                    <g id="Group-26" transform="translate(79.747127, 11.695010)" fill="#464747">
                        <path d="M46.5156176,37.6737016 C45.3342871,34.8922053 42.7031421,45.749706 42.7031421,45.749706 C42.7031421,45.749706 49.5011618,44.697248 46.5156176,37.6737016" id="Fill-16"></path>
                        <path d="M38.933624,28.6096753 C38.933624,28.6096753 42.4131791,23.2507309 35.9588192,18.9120264 C35.9588192,18.9120264 32.8229239,25.9033547 38.933624,28.6096753" id="Fill-18"></path>
                        <path d="M1.34583743,9.59025527 C1.34583743,9.59025527 4.4709934,6.11070017 4.24546668,0 C4.24546668,0 -2.89621278,0.150351146 1.34583743,9.59025527" id="Fill-20"></path>
                        <path d="M115.516054,41.4110015 C115.516054,41.4110015 124.461948,40.4766765 126.12655,49.8414051 C126.12655,49.8414051 116.729603,49.1003887 115.516054,41.4110015" id="Fill-22"></path>
                        <path d="M163.445852,17.6340416 C163.445852,17.6340416 160.578441,5.65964673 164.509049,0.665840792 C164.509049,0.665840792 172.30583,11.0185912 163.445852,17.6340416" id="Fill-24"></path>
                    </g>
                    <g id="Group-29" transform="translate(4.038002, 0.268645)">
                        <mask id="mask-4" fill="white">
                            <use xlink:href="#path-3"></use>
                        </mask>
                        <g id="Clip-28"></g>
                        <path d="M149.373864,-0.000322181028 C134.32801,15.0240531 99.8009432,45.0191068 60.0760224,46.8340599 C59.7645807,46.8447993 59.4531391,46.8555387 59.1416974,46.866278 L59.130958,46.866278 C53.0095185,47.070326 46.7699459,46.6085332 40.4551978,45.3090697 C22.1553154,41.5395517 2.69558127,5.20827111 0,-0.000322181028 L5.3696838,-0.000322181028 C8.16191938,4.98274439 27.4713023,38.6828799 42.4527201,41.3032856 C70.4609909,46.1789585 95.9132921,35.8154688 115.287111,23.1537544 C115.877776,22.7671371 116.468442,22.3805199 117.048368,21.9831633 C128.260267,14.4226485 137.302815,6.21777166 143.456472,-0.000322181028 L149.373864,-0.000322181028 Z" id="Fill-27" fill="#464747" mask="url(#mask-4)"></path>
                    </g>
                    <path d="M63.6200137,46.3294708 C63.6200137,46.3294708 67.7439309,51.9032025 65.0698283,57.058099 C65.0698283,57.058099 59.9041925,52.4079528 63.6200137,46.3294708" id="Fill-30" fill="#464747"></path>
                    <path d="M18.1173131,24.5607726 C18.1173131,24.5607726 12.0388311,20.1683713 6.70136539,24.5607726 C6.70136539,24.5607726 11.7166501,30.3707705 18.1173131,24.5607726" id="Fill-32" fill="#464747"></path>
                    <path d="M119.808385,24.163416 C119.808385,24.163416 125.016978,17.8057104 121.451508,13.4240484 C121.451508,13.4240484 115.716686,18.611163 119.808385,24.163416" id="Fill-34" fill="#464747"></path>
                    <g id="Group-42" transform="translate(6.701365, 13.424048)" fill="#464747">
                        <path d="M56.9186483,32.9054223 C56.9186483,32.9054223 61.0425655,38.4791541 58.3684629,43.6340506 C58.3684629,43.6340506 53.2028271,38.9839044 56.9186483,32.9054223" id="Fill-36"></path>
                        <path d="M11.4159478,11.1367242 C11.4159478,11.1367242 5.3374657,6.74432286 -1.90769491e-15,11.1367242 C-1.90769491e-15,11.1367242 5.01528467,16.9467221 11.4159478,11.1367242" id="Fill-38"></path>
                        <path d="M113.10702,10.7393676 C113.10702,10.7393676 118.315613,4.38166198 114.750143,-3.05231186e-14 C114.750143,-3.05231186e-14 109.015321,5.18711455 113.10702,10.7393676" id="Fill-40"></path>
                    </g>
                    <g id="Group-45">
                        <mask id="mask-6" fill="white">
                            <use xlink:href="#path-5"></use>
                        </mask>
                        <g id="Clip-44"></g>
                        <polyline id="Fill-43" fill="#464747" mask="url(#mask-6)" points="0 0.2683231 4.03800222 0.2683231 9.40768602 0.2683231 147.494475 0.2683231 153.422606 0.2683231 163.796835 0.2683231"></polyline>
                    </g>
                    <g id="Group-48" transform="translate(31.520044, 0.000000)">
                        <mask id="mask-8" fill="white">
                            <use xlink:href="#path-7"></use>
                        </mask>
                        <g id="Clip-47"></g>
                        <polyline id="Fill-46" fill="#464747" mask="url(#mask-8)" points="7.63077964e-15 0.2683231 6.96984958 0.2683231 7.18463693 0.2683231 12.1140067 0.2683231 12.9087199 0.2683231 259.248334 0.2683231 259.731606 0.2683231 268.505669 0.2683231 268.698977 0.2683231 281.102947 0.2683231"></polyline>
                    </g>
                    <path d="M40.637767,54.0725548 L39.0161225,46.1576409 C39.0161225,46.1576409 40.3907616,39.5744085 40.637767,39.735499 C40.8740331,39.9073289 40.637767,35.9981991 40.637767,35.9981991 C40.637767,35.9981991 30.2850166,28.0081096 29.0070319,28.2873332 C27.7290472,28.5772961 25.7852216,36.8358698 27.5679566,41.1745743 C29.3399523,45.5132788 32.4006721,50.3567336 32.4006721,50.3567336 L35.6332217,56.327822 L40.637767,54.0725548 Z" id="Fill-49" fill="#CC7A63"></path>
                    <path d="M152.713807,70.8689257 L156.472586,65.6925505 C156.150405,63.5876345 154.893899,63.2654535 155.366431,61.4934578 C155.838963,59.7107228 154.066968,52.4509103 154.71133,51.6454577 C155.355692,50.8400052 170.186758,50.0345526 170.186758,50.0345526 C170.186758,50.0345526 169.875317,59.5603716 169.230955,61.1712768 C168.586593,62.7821819 163.582047,66.7127905 163.582047,66.7127905 L155.194601,77.623988 L152.713807,70.8689257 Z" id="Fill-51" fill="#CC7A63"></path>
                    <path d="M17.0541158,181.18371 C20.8128944,190.655832 29.4043885,195.091191 38.2965849,195.563723 C40.6914639,195.692595 43.0970822,195.542244 45.4382643,195.10193 C46.5014617,194.919361 47.5539198,194.672355 48.584899,194.371653 C62.9541729,190.194039 74.6278655,177.339016 80.5882145,159.114309 C81.0500073,157.707452 80.2875122,156.203941 78.8806551,155.742148 C77.4737979,155.280355 75.9595471,156.04285 75.5084936,157.449707 C72.9417848,165.267967 65.059089,184.008163 47.0921269,189.227496 C46.9525152,189.270454 46.8343821,189.302672 46.6947703,189.33489 C37.3729993,191.901599 26.0214877,189.259714 22.0371823,179.207666 C17.4299936,167.58767 25.0442053,161.122571 33.8504867,153.637232 C37.2656056,150.748342 40.7773788,147.752058 43.4944388,144.401376 C52.0107573,133.909014 52.440332,116.317929 44.4287638,105.997397 C40.8525544,101.390208 33.7860505,98.103962 27.7505259,101.089506 C26.4295837,101.744608 25.8818759,103.344773 26.5369774,104.676455 C27.1920788,105.997397 28.7922445,106.545105 30.1239261,105.890003 C33.4960876,104.225402 37.8992283,106.298099 40.1974529,109.272904 C46.684031,117.628132 46.275935,132.469938 39.3275642,141.029214 C36.9326852,143.99328 33.7538324,146.688861 30.381671,149.556272 C21.3069053,157.256399 11.0400699,165.998244 17.0541158,181.18371" id="Fill-53" fill="#5DD39C"></path>
                    <path d="M45.4382643,195.10193 C46.5014617,194.919361 47.5539198,194.672355 48.584899,194.371653 C62.9541729,190.194039 74.6278655,177.339016 80.5882145,159.114309 C81.0500073,157.707452 80.2875122,156.203941 78.8806551,155.742148 C77.4737979,155.280355 75.9595471,156.04285 75.5084936,157.449707 C72.9417848,165.267967 65.059089,184.008163 47.0921269,189.227496 C46.9525152,189.270454 46.8343821,189.302672 46.6947703,189.33489 C46.1363232,191.300194 45.6960092,193.222541 45.4382643,195.10193" id="Fill-55" fill="#49A97D"></path>
                    <g id="Group-59" transform="translate(68.323857, 208.397267)">
                        <mask id="mask-10" fill="white">
                            <use xlink:href="#path-9"></use>
                        </mask>
                        <g id="Clip-58"></g>
                        <path d="M10.8897188,1.52615593e-14 C11.2978147,0.601404586 13.7356512,10.4494047 13.7356512,10.4494047 L13.4242095,16.0875727 C13.4242095,16.0875727 12.1677035,15.2928595 11.7918256,14.841806 C11.4266871,14.3907526 10.8252825,12.0280917 10.8252825,12.0280917 L10.86824,19.427516 L11.3515116,23.0896404 C11.3515116,23.0896404 10.3312716,24.0454441 9.60099464,24.0024866 C8.88145701,23.9702685 7.23833377,22.144576 7.23833377,22.144576 L1.0954155,20.361841 L0,2.16935226 L10.8897188,1.52615593e-14 Z" id="Fill-57" fill="#CC7A63" mask="url(#mask-10)"></path>
                    </g>
                    <path d="M90.5865657,193.9206 C90.5865657,193.9206 84.9698765,195.78925 83.7455886,196.884665 C82.53204,197.980081 83.0797478,209.320853 82.9830935,211.06063 C82.8971785,212.800408 85.8719834,214.840888 85.8719834,214.840888 L85.9256802,213.681036 L86.1297282,209.922257 L87.3862342,214.926803 L87.7406333,219.7273 L90.2858635,221.026764 C90.2858635,221.026764 91.4349758,218.481533 91.8860292,218.213049 C92.3370827,217.944565 93.9050303,213.10111 93.9050303,213.10111 L90.2536454,200.138694 L93.3143651,196.959841 L90.5865657,193.9206 Z" id="Fill-60" fill="#CC7A63"></path>
                    <path d="M31.5200439,54.8994861 C31.6274376,54.3947358 32.9269011,54.3947358 32.9269011,54.3947358 C32.9269011,54.3947358 31.2193416,53.7933312 31.6811344,53.1597086 C32.1536666,52.5368252 34.795551,53.3315384 34.795551,53.3315384 C34.795551,53.3315384 33.0235554,52.5153465 33.7860505,51.9032025 C34.5378062,51.2910586 36.5782861,52.4294316 36.5782861,52.4294316 C36.5782861,52.4294316 35.729876,50.7003934 36.1916688,50.2278612 C36.6534616,49.755329 37.7059197,51.8172876 37.7059197,51.8172876 C37.7059197,51.8172876 37.19043,49.2505787 37.8670102,48.7780466 C38.5435903,48.3055144 40.0793199,50.7863083 40.0793199,50.7863083 C40.0793199,50.7863083 39.9182294,48.3162538 40.5733308,48.2731216 C41.2284322,48.2410782 41.4432196,52.676437 41.4432196,52.6979157 C53.2135665,77.3769825 79.492799,105.761131 79.492799,105.761131 C79.492799,105.761131 85.7860684,113.149816 98.6947883,110.35758 C109.616725,107.99492 142.747674,79.5785529 152.713807,70.8689257 C152.713807,70.8689257 155.076468,66.4550456 155.742309,66.1973008 C156.40815,65.939556 156.075229,68.0981689 156.075229,68.0981689 C156.075229,68.0981689 158.019055,66.1758221 158.351975,67.1316258 C158.684896,68.0981689 157.385432,70.7078352 157.385432,70.7078352 C157.385432,70.7078352 158.652678,69.9775582 159.071513,70.439351 C159.479609,70.8904045 157.686135,71.9536019 157.686135,71.9536019 C157.686135,71.9536019 159.479609,72.2006073 159.437411,72.9953205 C159.393694,73.7900337 158.008316,73.5000708 158.008316,73.5000708 C158.008316,73.5000708 158.95338,73.8437306 158.706374,74.5525288 C158.60972,74.821013 158.180145,74.8639705 157.696874,74.8102736 C151.360647,86.3336151 140.921982,98.2328344 130.880673,108.209707 C131.825737,107.801611 132.437881,107.769393 132.341227,108.166749 C132.104961,109.17625 128.539491,110.991203 128.539491,110.991203 C128.539491,110.991203 130.053742,111.098597 129.656385,111.732219 C129.39864,112.140315 127.615905,112.4088 126.413096,112.548411 C114.062823,124.29728 103.398631,132.469938 103.398631,132.469938 L97.2234949,156.085808 C97.2234949,156.085808 98.8451394,160.263422 98.5014797,160.929262 C98.1685593,161.584364 97.0409257,159.586842 97.0409257,159.586842 L99.7257676,168.403862 C101.862902,168.027984 105.374675,167.544713 108.757576,167.77024 C108.757576,167.77024 112.92445,165.955287 114.137999,166.599649 C115.362287,167.244011 112.333785,167.7595 112.333785,167.7595 C112.333785,167.7595 117.241676,168.253511 117.284634,169.348927 C117.284634,169.542235 116.597314,169.671108 115.48042,169.767762 C117.434985,171.110183 118.809624,173.139923 119.37881,175.459627 C119.37881,175.459627 121.515944,182.472434 120.968237,183.600067 C120.420529,184.727701 119.453986,182.257647 119.453986,182.257647 C119.453986,182.257647 119.20698,187.573633 117.273894,187.562894 C116.790623,187.562894 116.446963,186.897053 116.199957,185.909032 C116.071085,186.048643 115.931473,186.188255 115.791862,186.317127 C110.422178,191.461285 95.7199835,198.184129 91.4349758,200.095736 C90.9946617,201.191152 90.361039,202.501354 89.7918525,202.24361 C88.8467882,201.803296 89.9636824,199.150672 89.9636824,199.150672 C89.9636824,199.150672 88.6427402,200.342742 87.6010216,199.891688 C86.5593029,199.451374 87.5365853,197.378676 87.5365853,197.378676 C87.5365853,197.378676 86.9244414,198.119692 86.473388,197.131671 C86.0223345,196.132909 87.6761971,194.876403 87.6761971,194.876403 C87.6761971,194.876403 86.4196911,194.801228 86.6666966,193.845424 C86.8277871,193.23328 88.2990804,193.168844 89.308581,193.211801 L96.1602975,186.231213 C96.1602975,186.231213 93.9909453,187.090362 86.0867707,188.862358 C86.0867707,188.862358 82.413907,219.061459 73.1028753,221.359684 C62.6212525,223.958611 62.8253005,194.060212 65.2738763,179.529847 C64.2106789,175.362973 68.0231544,167.319186 68.0231544,167.319186 C68.0231544,167.319186 67.572101,167.58767 67.3036168,166.213031 C67.0351326,164.849132 69.2259636,160.209725 69.2259636,160.209725 C69.2259636,160.209725 67.9694576,161.906545 67.6365372,160.918523 C67.4432286,160.338597 68.09833,158.899522 68.6675165,157.825585 L61.2466135,125.757834 C61.1929166,126.219626 61.0747836,126.477371 60.881475,126.412935 C59.743102,126.069275 59.9041925,119.947836 59.9041925,119.947836 C59.9041925,119.947836 59.4423997,120.828464 58.9806069,120.409628 C58.5188141,119.990793 58.3899417,113.375343 58.3899417,113.375343 L48.8533832,91.6173839 C48.8533832,91.6173839 45.9752327,90.5112291 46.0289296,89.6413403 C46.071887,88.7714515 47.4894835,89.7272552 47.4894835,89.7272552 C47.4894835,89.7272552 44.3428488,85.4744657 46.4262862,86.0758703 L33.0772522,55.6405025 C32.2288422,55.393497 31.4770865,55.1142735 31.5200439,54.8994861" id="Fill-62" fill="#5DD39C"></path>
                    <path d="M79.0310062,122.600459 C79.5250171,124.12545 80.8566987,123.567003 80.8566987,123.567003 C80.8566987,123.567003 84.2395995,136.422026 86.709654,139.020953 C89.1797086,141.60914 89.5985439,139.171304 89.5985439,139.171304 C89.5985439,139.171304 96.1710369,143.510008 100.1983,144.702078 L103.398631,132.469938 C103.398631,132.469938 109.810034,127.540569 118.465964,119.851181 C117.939735,120.076708 109.552289,123.695875 106.878186,123.416651 C106.878186,123.416651 110.594008,113.493476 104.966579,107.683478 C102.485785,109.068856 100.337912,110.013921 98.7055277,110.35758 C89.1474905,112.419539 83.2300989,108.918505 80.7815231,106.96394 C80.6848688,107.329079 80.3412091,109.068856 81.5440182,110.744198 C81.5440182,110.744198 78.8913944,111.614086 78.8269582,112.773938 C78.762522,113.93379 80.0405068,114.578152 80.0405068,114.578152 C80.0405068,114.578152 78.5262559,121.075469 79.0310062,122.600459 Z" id="Fill-64" fill="#49A97D"></path>
                    <path d="M86.0867707,188.862358 C93.2714076,187.251452 95.7199835,186.403042 96.1173401,186.263431 C96.1173401,186.252691 96.1388188,186.241952 96.1388188,186.241952 L96.1602975,186.241952 L96.1710369,186.231213 L100.499002,180.66822 C100.499002,180.66822 93.6150674,184.362563 89.6737195,184.298126 L86.0867707,188.862358 Z" id="Fill-66" fill="#49A97D"></path>
                    <path d="M102.775748,108.070095 C96.3643455,102.507103 87.7728514,106.480669 85.2920575,109.444734 C82.8112636,112.4088 84.0999877,129.377 89.0078787,133.866056 C91.5853269,136.217978 95.9025527,138.999474 100.273475,136.18576 C102.754269,134.607072 104.869925,131.481916 104.279259,127.991622 C103.699334,124.501328 109.423417,113.847875 102.775748,108.070095" id="Fill-68" fill="#CC7A63"></path>
                    <path d="M94.7641797,124.189886 C94.6997435,124.662418 94.946749,125.070514 95.26893,125.091993 C95.5803717,125.124211 95.8595952,124.748333 95.8918133,124.275801 C95.9347708,123.792529 95.7092441,123.384433 95.3978024,123.362955 C95.0863608,123.341476 94.8071372,123.706614 94.7641797,124.189886" id="Fill-70" fill="#1A2E35"></path>
                    <path d="M102.356913,124.705376 C102.292476,125.177908 102.550221,125.586004 102.861663,125.607482 C103.173105,125.639701 103.452328,125.263823 103.495286,124.79129 C103.527504,124.308019 103.291238,123.899923 102.990535,123.878444 C102.679094,123.856965 102.389131,124.254322 102.356913,124.705376" id="Fill-72" fill="#1A2E35"></path>
                    <path d="M101.787726,129.828054 C101.787726,129.828054 101.680332,130.633506 101.583678,130.891251 C101.282976,131.685964 100.02647,133.608311 98.4048254,132.115539 C97.2771918,131.073821 97.6960271,130.096538 97.6960271,130.096538" id="Stroke-74" stroke="#1A2E35" stroke-width="0.631" stroke-linecap="round"></path>
                    <path d="M100.262736,132.512896 C99.3606291,133.318348 101.057449,134.005668 101.615896,133.157258" id="Stroke-76" stroke="#1A2E35" stroke-width="0.631" stroke-linecap="round"></path>
                    <path d="M102.593179,129.076298 L101.078928,129.001123 C100.917837,128.990383 100.810444,129.162213 100.896359,129.301825 L101.605157,130.39724 C101.669593,130.515373 101.841423,130.526113 101.916599,130.418719 L102.74353,129.398479 C102.840184,129.269607 102.754269,129.087038 102.593179,129.076298" id="Fill-78" fill="#B84D3C"></path>
                    <path d="M105.492808,121.837964 C105.492808,121.837964 104.590701,120.270017 103.731552,120.345192 C103.162365,120.398889 101.175582,121.268778 100.788965,121.215081 C100.166082,121.107687 99.3606291,119.904878 97.9000751,119.647133 C96.4287817,119.400128 92.2619071,120.495543 91.8001143,121.096948 C91.3275821,121.709092 90.8550499,122.482326 91.3383215,124.12545 C91.4671939,124.576503 93.5291525,128.066798 93.5291525,128.066798 C93.5291525,128.066798 93.2928864,134.080843 93.7332005,135.337349 C94.1735145,136.593855 95.9347708,137.356351 98.5873946,137.012691 C99.2639748,136.926776 101.981035,134.746684 102.625397,133.640529 C103.366413,132.373284 103.677855,129.258867 103.602679,128.174191 C103.602679,128.174191 105.428372,128.206409 105.235063,131.020124 C105.041755,133.833838 103.989297,133.339827 103.989297,133.339827 C103.989297,133.339827 101.562199,138.086628 100.488263,137.603356 C99.4143259,137.109345 99.3498897,139.353873 98.1792986,139.590139 C97.0087076,139.815666 95.5481536,137.603356 95.150797,138.236979 C94.7534404,138.870601 95.1293182,141.426571 94.4419987,140.814427 C93.7546792,140.191544 93.4217588,139.525703 93.0458809,139.719011 C92.6807424,139.923059 91.7678962,140.159326 91.4242364,139.343134 C91.0805767,138.526942 90.6402626,137.345611 89.1797086,137.485223 C87.7191546,137.624835 86.5807816,135.895797 86.8922233,135.476961 C87.203665,135.058126 86.6344785,132.26589 86.0545526,132.233672 C85.4746268,132.201454 84.8195253,130.826815 84.9913552,130.418719 C85.1524457,130.010623 85.012834,128.71116 84.1751633,128.077537 C83.3374926,127.454654 83.348232,125.704137 83.5200619,125.285301 C83.6918917,124.855727 83.2515777,122.2568 82.3924283,120.602937 C81.5440182,118.938335 82.6716518,118.132883 82.9938329,117.49926 C83.3267532,116.865637 82.1991196,115.566174 82.3279921,114.846636 C82.4568645,114.127098 83.5093225,114.696285 83.3160139,112.945768 C83.1227053,111.195251 82.0487685,109.541388 83.0045722,109.294383 C83.9603759,109.058117 81.2433159,108.188228 84.5188231,106.62028 C87.8050695,105.063072 91.7893749,105.073812 91.7893749,105.073812 C91.7893749,105.073812 89.83481,103.22664 93.3358439,103.699173 C96.8368777,104.160965 99.0384481,105.148987 99.0384481,105.148987 C99.0384481,105.148987 98.8129213,104.268359 100.058688,104.622758 C101.293715,104.987897 103.387892,106.577323 103.817467,108.123792 C103.817467,108.123792 104.78401,107.490169 105.772032,109.358819 C106.760053,111.227469 107.039277,115.587652 107.039277,115.587652 C107.039277,115.587652 107.812511,121.182863 105.492808,121.837964" id="Fill-80" fill="#5DD39C"></path>
                    <path d="M87.321798,115.265471 C87.321798,115.265471 84.926919,111.21673 82.8971785,112.634326 C80.8674381,114.041184 78.9450913,120.087447 81.1144435,121.601698 C83.2730564,123.115949 84.2503389,125.210126 85.5175842,124.576503 C85.5175842,124.576503 84.4866049,123.663657 84.9376584,123.180385 C85.3994512,122.697114 86.1404676,122.450108 86.1404676,122.450108 C86.1404676,122.450108 85.2276213,121.999055 85.7216322,120.774767 C86.2263825,119.550479 87.1607075,118.369149 87.1607075,118.369149 C87.1607075,118.369149 86.183425,116.285711 86.3552549,115.716525 C86.5378242,115.147338 87.321798,115.265471 87.321798,115.265471" id="Fill-82" fill="#CC7A63"></path>
                </g>
            </g>
        </g>
    </g>
</svg>